<?xml version="1.0" encoding="UTF-8"?>
<svg xmlns="http://www.w3.org/2000/svg" xmlns:xlink="http://www.w3.org/1999/xlink" width="563pt" height="183pt" viewBox="0 0 563 183" version="1.2">
<defs>
<clipPath id="clip1">
  <rect x="0" y="0" width="563" height="183"/>
</clipPath>
<g id="surface7" clip-path="url(#clip1)">
<path style=" stroke:none;fill-rule:nonzero;fill:rgb(100%,92.941284%,0%);fill-opacity:1;" d="M 121.988281 20.371094 L 101.386719 75.851562 L 113.121094 75.851562 C 125.617188 75.851562 135.582031 73.804688 143.066406 69.714844 C 150.53125 65.664062 155.890625 59.320312 159.066406 50.769531 C 162.441406 41.683594 161.679688 34.363281 156.847656 28.757812 C 151.960938 23.148438 143.882812 20.371094 132.628906 20.371094 Z M 23.714844 147.617188 L 78.433594 0.484375 L 153.128906 0.484375 C 177.074219 0.484375 193.960938 4.984375 203.8125 14.027344 C 213.667969 23.070312 215.585938 35.75 209.523438 52.078125 C 204.570312 65.414062 195.324219 76.054688 181.867188 83.910156 C 168.34375 91.804688 152.621094 95.734375 134.691406 95.734375 L 94.003906 95.734375 L 74.636719 147.730469 Z M 299.785156 147.675781 L 282.300781 81.78125 L 368.296875 0.484375 L 395.820312 0.484375 L 333.648438 59.117188 L 357.605469 147.570312 Z M 202.863281 147.621094 L 257.589844 0.484375 L 309.964844 0.484375 L 255.238281 147.621094 Z M 406.113281 147.492188 L 452.761719 22.085938 L 402.964844 22.085938 L 410.992188 0.484375 L 562.957031 0.484375 L 554.933594 22.085938 L 505.136719 22.085938 L 458.449219 147.59375 Z M 406.113281 147.492188 "/>
<path style=" stroke:none;fill-rule:nonzero;fill:rgb(5.882263%,12.940979%,26.274109%);fill-opacity:1;" d="M 28.875 133.730469 L 79.847656 133.734375 L 75.792969 144.636719 L 24.824219 144.632812 Z M 28.875 133.730469 "/>
<path style=" stroke:none;fill-rule:nonzero;fill:rgb(5.882263%,12.940979%,26.274109%);fill-opacity:1;" d="M 208.027344 133.746094 L 260.398438 133.742188 L 256.347656 144.636719 L 203.972656 144.644531 Z M 208.027344 133.746094 "/>
<path style=" stroke:none;fill-rule:nonzero;fill:rgb(5.882263%,12.940979%,26.274109%);fill-opacity:1;" d="M 411.222656 133.75 L 463.597656 133.753906 L 459.542969 144.652344 L 407.167969 144.652344 Z M 411.222656 133.75 "/>
<path style=" stroke:none;fill-rule:nonzero;fill:rgb(5.882263%,12.940979%,26.274109%);fill-opacity:1;" d="M 296.132812 133.800781 L 353.878906 133.816406 L 356.808594 144.628906 L 299.03125 144.71875 Z M 296.132812 133.800781 "/>
<path style=" stroke:none;fill-rule:nonzero;fill:rgb(5.882263%,12.940979%,26.274109%);fill-opacity:1;" d="M 112.09375 24.695312 L 91.484375 80.171875 L 103.21875 80.171875 C 115.714844 80.171875 125.679688 78.128906 133.164062 74.035156 C 140.628906 69.984375 145.992188 63.644531 149.167969 55.089844 C 152.542969 46.007812 151.777344 38.683594 146.945312 33.082031 C 142.058594 27.472656 133.984375 24.695312 122.730469 24.695312 Z M 15.496094 147.609375 L 68.53125 4.808594 L 143.234375 4.808594 C 167.171875 4.808594 184.058594 9.308594 193.910156 18.351562 C 203.765625 27.390625 205.6875 40.078125 199.625 56.402344 C 194.667969 69.738281 185.421875 80.378906 171.96875 88.234375 C 158.445312 96.128906 142.722656 100.058594 124.789062 100.058594 L 84.101562 100.058594 L 66.421875 147.664062 Z M 288.753906 147.695312 L 272.398438 86.105469 L 358.398438 4.808594 L 385.921875 4.808594 L 323.746094 63.441406 L 346.539062 147.59375 Z M 194.644531 147.640625 L 247.691406 4.808594 L 300.0625 4.808594 L 247.023438 147.625 Z M 397.90625 147.460938 L 442.859375 26.410156 L 393.0625 26.410156 L 401.085938 4.808594 L 553.054688 4.808594 L 545.035156 26.410156 L 495.238281 26.410156 L 450.210938 147.648438 Z M 397.90625 147.460938 "/>
<path style=" stroke:none;fill-rule:nonzero;fill:rgb(100%,92.941284%,0%);fill-opacity:1;" d="M 20.230469 134.878906 L 71.171875 134.878906 L 67.121094 145.78125 L 16.175781 145.78125 Z M 20.230469 134.878906 "/>
<path style=" stroke:none;fill-rule:nonzero;fill:rgb(100%,92.941284%,0%);fill-opacity:1;" d="M 199.378906 134.894531 L 251.753906 134.886719 L 247.707031 145.792969 L 195.332031 145.792969 Z M 199.378906 134.894531 "/>
<path style=" stroke:none;fill-rule:nonzero;fill:rgb(100%,92.941284%,0%);fill-opacity:1;" d="M 402.574219 134.898438 L 454.945312 134.898438 L 450.902344 145.796875 L 398.527344 145.800781 Z M 402.574219 134.898438 "/>
<path style=" stroke:none;fill-rule:nonzero;fill:rgb(100%,92.941284%,0%);fill-opacity:1;" d="M 285.363281 134.929688 L 343.113281 134.941406 L 346.039062 145.753906 L 288.261719 145.84375 Z M 285.363281 134.929688 "/>
<path style=" stroke:none;fill-rule:nonzero;fill:rgb(89.019775%,0%,5.882263%);fill-opacity:1;" d="M 37.601562 178.242188 L 44.175781 162.816406 L 22.691406 162.816406 L 24.535156 158.042969 L 46.210938 158.042969 L 48.980469 151.621094 L 18.386719 151.621094 L 11.777344 167.011719 L 33.414062 167.011719 L 31.300781 171.785156 L 9.742188 171.785156 L 6.972656 178.242188 Z M 0.632812 182.226562 L 6.859375 167.800781 L 28.457031 167.800781 L 27.035156 171.03125 L 5.433594 171.03125 L 15.503906 147.601562 L 55.320312 147.601562 L 49.09375 162.0625 L 27.53125 162.0625 L 28.800781 158.832031 L 50.476562 158.832031 L 40.484375 182.226562 Z M 53.089844 178.242188 L 60.742188 173.183594 L 63.96875 178.242188 L 69.925781 178.242188 L 76.230469 174.046875 L 85.839844 151.621094 L 79.265625 151.621094 L 72.503906 167.300781 L 67.082031 167.300781 L 73.808594 151.621094 L 67.234375 151.621094 L 60.511719 167.300781 L 55.054688 167.300781 L 61.816406 151.621094 L 55.246094 151.621094 L 45.136719 175.15625 L 47.136719 178.242188 Z M 44.714844 182.226562 L 40.371094 175.515625 L 52.363281 147.601562 L 68.15625 147.601562 L 61.390625 163.316406 L 57.625 163.316406 L 64.351562 147.601562 L 80.148438 147.601562 L 73.421875 163.316406 L 69.621094 163.316406 L 76.382812 147.601562 L 92.175781 147.601562 L 79.726562 176.628906 L 71.308594 182.226562 L 61.507812 182.226562 L 59.394531 178.925781 L 54.476562 182.226562 Z M 91.21875 178.242188 L 102.632812 151.621094 L 93.636719 151.621094 L 82.222656 178.242188 Z M 75.882812 182.226562 L 90.757812 147.601562 L 108.933594 147.601562 L 94.101562 182.226562 Z M 128.84375 178.242188 L 135.414062 162.816406 L 113.929688 162.816406 L 115.773438 158.042969 L 137.453125 158.042969 L 140.21875 151.621094 L 109.625 151.621094 L 103.015625 167.011719 L 124.652344 167.011719 L 122.539062 171.785156 L 100.980469 171.785156 L 98.210938 178.242188 Z M 91.871094 182.226562 L 98.097656 167.800781 L 119.695312 167.800781 L 118.273438 171.03125 L 96.671875 171.03125 L 106.742188 147.601562 L 146.558594 147.601562 L 140.332031 162.0625 L 118.773438 162.0625 L 120.039062 158.832031 L 141.71875 158.832031 L 131.726562 182.226562 Z M 166.46875 178.242188 L 173.039062 162.816406 L 151.554688 162.816406 L 153.398438 158.042969 L 175.074219 158.042969 L 177.84375 151.621094 L 147.25 151.621094 L 140.640625 167.011719 L 162.277344 167.011719 L 160.164062 171.785156 L 138.605469 171.785156 L 135.835938 178.242188 Z M 129.496094 182.226562 L 135.722656 167.800781 L 157.324219 167.800781 L 155.898438 171.03125 L 134.300781 171.03125 L 144.371094 147.601562 L 184.183594 147.601562 L 177.957031 162.0625 L 156.398438 162.0625 L 157.664062 158.832031 L 179.34375 158.832031 L 169.351562 182.226562 Z M 199.289062 178.242188 L 202.785156 170.0625 L 208.054688 178.242188 L 219.699219 178.242188 L 210.78125 164.359375 L 229.921875 151.621094 L 220.621094 151.621094 L 206.707031 160.878906 L 210.703125 151.621094 L 201.710938 151.621094 L 190.296875 178.242188 Z M 183.953125 182.226562 L 198.828125 147.601562 L 217.046875 147.601562 L 216.121094 149.683594 L 219.277344 147.601562 L 243.296875 147.601562 L 216.46875 165.46875 L 227.269531 182.226562 L 205.59375 182.226562 L 203.519531 179.035156 L 202.171875 182.226562 Z M 253.402344 161.054688 L 251.980469 164.285156 L 248.5625 164.285156 L 250.019531 161.054688 Z M 238.03125 178.242188 L 239.949219 173.757812 L 252.554688 173.757812 L 250.632812 178.242188 L 259.667969 178.242188 L 271.042969 151.621094 L 240.449219 151.621094 L 229.035156 178.242188 Z M 243.640625 165.074219 L 245.71875 160.304688 L 258.359375 160.304688 L 256.285156 165.074219 Z M 222.695312 182.226562 L 237.570312 147.601562 L 277.34375 147.601562 L 262.550781 182.226562 L 244.332031 182.226562 L 246.257812 177.742188 L 242.835938 177.742188 L 240.914062 182.226562 Z M 291.953125 158.832031 L 290.71875 162.0625 L 287.222656 162.0625 L 288.492188 158.832031 Z M 275.65625 178.242188 L 278.539062 171.496094 L 287.300781 171.496094 L 289.605469 175.15625 L 288.261719 178.242188 L 297.292969 178.242188 L 300.597656 170.386719 L 298.90625 167.730469 L 302.902344 165.074219 L 307.363281 154.707031 L 305.363281 151.621094 L 278.074219 151.621094 L 266.660156 178.242188 Z M 282.378906 162.816406 L 284.226562 158.042969 L 296.832031 158.042969 L 294.949219 162.816406 Z M 260.324219 182.226562 L 275.195312 147.601562 L 307.785156 147.601562 L 312.128906 154.347656 L 306.398438 167.660156 L 304.59375 168.84375 L 305.363281 170.027344 L 300.175781 182.226562 L 281.957031 182.226562 L 284.839844 175.515625 L 281.417969 175.515625 L 278.539062 182.226562 Z M 325.308594 178.242188 L 333 160.304688 L 342.605469 160.304688 L 346.292969 151.621094 L 315.699219 151.621094 L 311.972656 160.304688 L 321.582031 160.304688 L 313.894531 178.242188 Z M 307.59375 182.226562 L 315.277344 164.285156 L 305.671875 164.285156 L 312.820312 147.601562 L 352.597656 147.601562 L 345.488281 164.285156 L 335.882812 164.285156 L 328.195312 182.226562 Z M 379.769531 178.242188 L 387.457031 160.304688 L 397.066406 160.304688 L 400.753906 151.621094 L 370.160156 151.621094 L 366.433594 160.304688 L 376.039062 160.304688 L 368.355469 178.242188 Z M 362.054688 182.226562 L 369.738281 164.285156 L 360.128906 164.285156 L 367.277344 147.601562 L 407.054688 147.601562 L 399.949219 164.285156 L 390.339844 164.285156 L 382.652344 182.226562 Z M 423.160156 178.242188 L 425.890625 171.785156 L 408.054688 171.785156 L 410.171875 167.011719 L 422.199219 167.011719 L 423.96875 162.816406 L 412.089844 162.816406 L 413.9375 158.042969 L 431.808594 158.042969 L 434.574219 151.621094 L 407.785156 151.621094 L 396.371094 178.242188 Z M 390.03125 182.226562 L 404.902344 147.601562 L 440.914062 147.601562 L 434.691406 162.0625 L 416.933594 162.0625 L 418.203125 158.832031 L 430.308594 158.832031 L 425.082031 171.03125 L 413.015625 171.03125 L 414.4375 167.800781 L 432.191406 167.800781 L 426.042969 182.226562 Z M 454.558594 161.054688 L 453.136719 164.285156 L 449.71875 164.285156 L 451.179688 161.054688 Z M 439.1875 178.242188 L 441.105469 173.757812 L 453.714844 173.757812 L 451.789062 178.242188 L 460.824219 178.242188 L 472.199219 151.621094 L 441.605469 151.621094 L 430.191406 178.242188 Z M 444.796875 165.074219 L 446.875 160.304688 L 459.515625 160.304688 L 457.441406 165.074219 Z M 423.851562 182.226562 L 438.726562 147.601562 L 478.503906 147.601562 L 463.707031 182.226562 L 445.488281 182.226562 L 447.410156 177.742188 L 443.992188 177.742188 L 442.070312 182.226562 Z M 474.425781 178.242188 L 481.117188 162.527344 L 486.535156 162.527344 L 479.808594 178.242188 L 486.421875 178.242188 L 493.144531 162.527344 L 498.527344 162.527344 L 491.839844 178.242188 L 498.449219 178.242188 L 509.824219 151.621094 L 500.527344 151.621094 L 492.953125 156.644531 L 489.722656 151.621094 L 479.230469 151.621094 L 467.816406 178.242188 Z M 461.476562 182.226562 L 476.351562 147.601562 L 492.148438 147.601562 L 494.21875 150.902344 L 499.179688 147.601562 L 516.125 147.601562 L 501.332031 182.226562 L 485.535156 182.226562 L 492.222656 166.546875 L 496.03125 166.546875 L 489.300781 182.226562 L 473.507812 182.226562 L 480.234375 166.546875 L 484.035156 166.546875 L 477.3125 182.226562 Z M 461.476562 182.226562 "/>
</g>
</defs>
<g id="surface1">
<use xlink:href="#surface7"/>
</g>
</svg>
