<svg xmlns="http://www.w3.org/2000/svg" viewBox="0 0 1923 688" width="1923" height="688">
<path fill="#FFFFFF" fill-rule="evenodd" d="M 1433 565 L 1423 566 L 1417 582 L 1426 582 Z M 816 538 L 760 575 L 784 613 Z M 1582 532 L 1546 614 L 1565 614 L 1587 565 L 1604 567 L 1584 614 L 1603 614 L 1625 565 L 1639 565 L 1641 568 L 1621 614 L 1640 614 L 1675 532 L 1648 532 L 1624 548 L 1612 532 Z M 1464 532 L 1429 614 L 1455 614 L 1462 600 L 1499 600 L 1501 603 L 1496 614 L 1523 614 L 1557 532 Z M 1472 573 L 1480 558 L 1519 560 L 1512 575 Z M 1358 532 L 1323 614 L 1405 614 L 1412 595 L 1360 595 L 1358 592 L 1365 579 L 1403 577 L 1406 567 L 1372 567 L 1370 565 L 1377 551 L 1432 551 L 1440 532 Z M 1235 614 L 1269 614 L 1292 560 L 1323 558 L 1334 532 L 1241 532 L 1229 558 L 1256 558 L 1258 561 Z M 1065 614 L 1099 614 L 1122 560 L 1153 558 L 1164 532 L 1070 532 L 1059 558 L 1086 558 L 1088 561 Z M 953 532 L 917 614 L 944 614 L 954 593 L 980 593 L 988 604 L 985 614 L 1011 614 L 1021 592 L 1016 582 L 1029 573 L 1042 543 L 1038 534 Z M 965 565 L 972 551 L 1011 553 L 1004 567 Z M 835 532 L 800 614 L 826 614 L 833 600 L 870 600 L 872 603 L 867 614 L 894 614 L 928 532 Z M 843 573 L 851 558 L 890 560 L 883 575 Z M 714 532 L 679 614 L 705 614 L 716 590 L 733 614 L 768 614 L 741 571 L 799 532 L 773 532 L 730 561 L 728 559 L 740 532 Z M 544 532 L 523 579 L 588 579 L 590 582 L 583 595 L 517 595 L 508 614 L 602 614 L 622 567 L 558 567 L 556 564 L 563 551 L 629 551 L 637 532 Z M 426 532 L 406 579 L 470 579 L 472 583 L 465 595 L 399 595 L 391 614 L 485 614 L 504 567 L 440 567 L 438 565 L 445 551 L 511 551 L 519 532 Z M 402 532 L 375 533 L 341 614 L 367 614 Z M 256 532 L 225 603 L 229 613 L 249 614 L 272 598 L 283 614 L 301 614 L 318 603 L 349 532 L 330 533 L 309 581 L 294 581 L 292 578 L 312 532 L 292 534 L 271 581 L 254 579 L 274 532 Z M 141 532 L 120 579 L 185 579 L 185 587 L 180 595 L 114 595 L 105 614 L 199 614 L 219 567 L 155 567 L 153 564 L 160 551 L 226 551 L 234 532 Z M 1046 520 L 1054 532 L 1059 520 Z M 760 523 L 765 520 L 761 520 Z M 942 358 L 882 518 L 984 518 Z M 543 163 L 530 151 L 506 140 L 484 136 L 459 136 L 401 294 L 475 292 L 503 286 L 516 277 L 540 248 L 553 214 L 554 188 Z M 506 195 L 501 218 L 483 241 L 474 243 L 472 239 L 489 193 L 493 187 Z M 10 676 L 1682 676 L 1770 470 L 1589 470 L 1588 464 L 1690 191 L 1820 189 L 1827 176 L 1851 176 L 1913 10 L 1214 10 L 1199 24 L 1183 24 L 1085 116 L 1084 111 L 1122 10 L 854 10 L 847 24 L 822 24 L 788 114 L 768 81 L 738 53 L 702 33 L 657 19 L 621 13 L 575 10 L 294 10 L 287 24 L 262 24 L 86 500 Z M 702 349 L 656 470 L 387 468 L 407 419 L 499 419 L 556 411 L 607 395 L 670 366 L 699 347 Z M 1394 189 L 1395 194 L 1293 468 L 1239 470 L 1181 258 L 1254 189 Z M 1337 72 L 1362 72 L 1368 58 L 1843 60 L 1819 125 L 1792 127 L 1785 141 L 1657 141 L 1517 518 L 1620 518 L 1627 528 L 1643 518 L 1694 518 L 1696 522 L 1649 628 L 1477 628 L 1475 625 L 1480 614 L 1471 614 L 1464 628 L 1303 628 L 1301 626 L 1325 572 L 1303 572 L 1278 628 L 1214 626 L 1237 572 L 1210 572 L 1208 569 L 1231 518 L 1326 518 L 1466 142 L 1313 141 L 1312 135 Z M 1320 60 L 1126 243 L 1201 518 L 1185 520 L 1162 572 L 1133 572 L 1108 628 L 1044 626 L 1067 572 L 1045 572 L 1041 582 L 1036 586 L 1038 590 L 1020 628 L 966 628 L 964 624 L 972 607 L 962 608 L 953 628 L 848 628 L 846 625 L 851 614 L 842 614 L 835 628 L 725 628 L 719 619 L 714 628 L 657 626 L 703 520 L 693 520 L 693 510 L 858 72 L 882 72 L 888 58 L 1052 60 L 963 299 L 1203 72 L 1219 72 L 1234 58 Z M 297 72 L 322 72 L 328 58 L 569 58 L 617 61 L 659 69 L 691 81 L 717 98 L 737 121 L 745 138 L 749 158 L 748 185 L 742 211 L 721 256 L 684 298 L 658 317 L 624 335 L 549 363 L 495 371 L 372 371 L 317 518 L 657 518 L 657 525 L 611 628 L 321 628 L 319 626 L 324 616 L 306 628 L 275 628 L 268 618 L 253 628 L 222 628 L 215 617 L 208 628 L 84 626 L 131 518 Z"/>
<path fill="#FFEB00" fill-rule="evenodd" d="M 1329 513 L 1490 513 L 1491 519 L 1515 519 L 1519 510 L 1494 508 L 1504 480 L 1341 480 Z M 975 480 L 984 513 L 1163 513 L 1166 519 L 1200 519 L 1197 509 L 1165 510 L 1155 480 Z M 693 513 L 855 513 L 856 519 L 880 519 L 883 510 L 859 508 L 869 480 L 706 480 Z M 133 513 L 290 513 L 291 519 L 315 519 L 319 510 L 294 508 L 304 480 L 146 480 Z M 371 371 L 345 371 L 307 476 L 332 476 Z M 1656 141 L 1630 142 L 1507 476 L 1532 475 Z M 458 135 L 433 135 L 369 308 L 444 306 L 469 301 L 502 287 L 455 295 L 400 293 Z M 1363 72 L 1809 72 L 1811 75 L 1792 126 L 1817 126 L 1842 59 L 1368 59 Z M 1319 59 L 1234 59 L 1220 72 L 1288 74 L 1095 256 L 1154 476 L 1189 477 L 1125 243 Z M 1051 59 L 887 61 L 883 72 L 1018 72 L 1020 76 L 871 476 L 896 476 L 941 356 L 934 327 L 963 297 Z M 323 72 L 537 72 L 593 76 L 646 89 L 669 100 L 687 113 L 707 137 L 716 161 L 717 195 L 709 229 L 694 262 L 674 290 L 643 319 L 610 339 L 653 319 L 686 295 L 715 263 L 735 227 L 748 176 L 748 159 L 743 136 L 734 118 L 718 100 L 684 79 L 646 67 L 594 60 L 328 59 Z"/>
<path fill="#0B224B" fill-rule="evenodd" d="M 1327 518 L 1490 518 L 1491 514 L 1329 514 Z M 984 514 L 985 518 L 1165 518 L 1164 514 Z M 692 519 L 854 518 L 856 514 L 693 514 Z M 132 518 L 290 518 L 291 514 L 133 514 Z M 1342 479 L 1503 479 L 1505 482 L 1495 509 L 1519 509 L 1530 477 L 1508 477 L 1506 473 L 1629 142 L 1786 140 L 1810 73 L 1337 73 L 1312 140 L 1467 142 Z M 1288 73 L 1203 73 L 935 327 L 975 479 L 1154 479 L 1164 509 L 1197 509 L 1188 477 L 1155 477 L 1152 473 L 1094 256 Z M 1020 73 L 857 73 L 707 479 L 868 479 L 870 481 L 859 509 L 884 508 L 895 477 L 870 475 Z M 147 479 L 303 479 L 305 482 L 295 509 L 319 509 L 331 477 L 308 477 L 306 473 L 346 370 L 491 370 L 528 366 L 578 353 L 627 329 L 654 309 L 673 290 L 690 267 L 705 237 L 715 202 L 716 167 L 704 134 L 687 114 L 669 101 L 631 85 L 593 77 L 536 73 L 297 73 Z M 545 164 L 552 176 L 556 194 L 552 223 L 537 255 L 514 280 L 489 295 L 451 306 L 424 309 L 368 307 L 434 134 L 473 134 L 507 139 L 524 146 Z"/>
<path fill="#E40000" fill-rule="evenodd" d="M 1474 574 L 1512 574 L 1518 559 L 1480 559 Z M 845 574 L 883 574 L 889 559 L 851 559 Z M 966 566 L 1004 566 L 1010 552 L 971 552 Z M 1215 627 L 1278 627 L 1304 571 L 1323 571 L 1325 574 L 1302 627 L 1464 627 L 1471 613 L 1481 615 L 1476 627 L 1650 627 L 1695 519 L 1643 519 L 1629 529 L 1620 519 L 1231 519 L 1209 571 L 1238 573 Z M 1432 564 L 1434 567 L 1428 581 L 1418 583 L 1416 580 L 1422 566 Z M 1582 531 L 1612 531 L 1623 547 L 1648 531 L 1676 533 L 1640 615 L 1620 613 L 1640 566 L 1624 566 L 1602 615 L 1585 615 L 1583 612 L 1603 566 L 1586 567 L 1565 615 L 1545 613 Z M 1464 531 L 1558 533 L 1522 615 L 1497 615 L 1495 613 L 1500 601 L 1462 601 L 1454 615 L 1428 613 Z M 1358 531 L 1441 533 L 1431 552 L 1377 552 L 1371 566 L 1408 568 L 1401 580 L 1365 580 L 1359 594 L 1412 594 L 1414 596 L 1404 615 L 1322 613 Z M 1234 613 L 1257 561 L 1228 557 L 1241 531 L 1335 533 L 1323 559 L 1293 560 L 1269 615 Z M 658 627 L 714 627 L 719 618 L 725 627 L 835 627 L 843 613 L 852 615 L 847 627 L 953 627 L 963 606 L 972 608 L 964 627 L 1021 627 L 1036 592 L 1035 586 L 1046 571 L 1068 573 L 1044 627 L 1108 627 L 1131 573 L 1162 571 L 1184 520 L 1060 520 L 1054 533 L 1045 520 L 768 519 L 761 524 L 760 519 L 705 519 Z M 815 537 L 816 542 L 784 613 L 759 575 Z M 1064 613 L 1087 560 L 1058 557 L 1070 531 L 1165 533 L 1152 559 L 1123 560 L 1098 615 Z M 953 531 L 1036 531 L 1043 540 L 1030 573 L 1017 582 L 1022 592 L 1011 615 L 986 615 L 984 613 L 987 604 L 980 594 L 953 594 L 943 615 L 917 613 Z M 835 531 L 929 533 L 893 615 L 868 615 L 866 613 L 871 601 L 833 601 L 826 615 L 799 613 Z M 714 531 L 741 533 L 729 560 L 772 531 L 799 533 L 742 571 L 768 612 L 766 615 L 733 615 L 716 590 L 704 615 L 678 613 Z M 85 627 L 209 627 L 214 617 L 222 627 L 253 627 L 267 617 L 275 627 L 306 627 L 322 616 L 324 618 L 320 627 L 612 627 L 657 519 L 131 519 Z M 544 531 L 638 533 L 629 552 L 561 554 L 557 566 L 623 568 L 602 615 L 508 613 L 517 594 L 583 594 L 589 580 L 523 578 Z M 426 531 L 520 533 L 511 552 L 445 552 L 439 566 L 505 568 L 484 615 L 390 613 L 399 594 L 465 594 L 471 580 L 405 578 Z M 401 531 L 402 536 L 369 613 L 342 615 L 340 612 L 374 533 Z M 256 531 L 273 531 L 275 534 L 255 580 L 272 580 L 294 531 L 313 533 L 293 580 L 309 580 L 331 531 L 350 533 L 323 598 L 318 604 L 301 615 L 283 615 L 273 600 L 249 615 L 228 613 L 223 605 Z M 141 531 L 235 533 L 226 552 L 158 554 L 154 566 L 220 568 L 199 615 L 105 613 L 114 594 L 180 594 L 186 582 L 120 578 Z"/>
</svg>