<?xml version="1.0" encoding="UTF-8" standalone="no"?>
<svg
   width="308.72061pt"
   height="181.74219pt"
   viewBox="0 0 308.72061 181.74219"
   version="1.2"
   id="svg11"
   sodipodi:docname="icon.svg"
   xmlns:inkscape="http://www.inkscape.org/namespaces/inkscape"
   xmlns:sodipodi="http://sodipodi.sourceforge.net/DTD/sodipodi-0.dtd"
   xmlns:xlink="http://www.w3.org/1999/xlink"
   xmlns="http://www.w3.org/2000/svg"
   xmlns:svg="http://www.w3.org/2000/svg">
  <sodipodi:namedview
     id="namedview11"
     pagecolor="#ffffff"
     bordercolor="#000000"
     borderopacity="0.25"
     inkscape:showpageshadow="2"
     inkscape:pageopacity="0.0"
     inkscape:pagecheckerboard="0"
     inkscape:deskcolor="#d1d1d1"
     inkscape:document-units="pt">
    <inkscape:page
       x="0"
       y="0"
       width="308.72061"
       height="181.74219"
       id="page2"
       margin="0"
       bleed="0" />
  </sodipodi:namedview>
  <defs
     id="defs11">
    <clipPath
       id="clip1">
      <rect
         x="0"
         y="0"
         width="563"
         height="183"
         id="rect1" />
    </clipPath>
    <g
       id="surface7"
       clip-path="url(#clip1)">
      <path
         style="fill:#ffeb00;fill-opacity:1;fill-rule:nonzero;stroke:none"
         d="m 121.98828,20.371094 -20.60156,55.480468 h 11.73437 c 12.4961,0 22.46094,-2.046874 29.94532,-6.136718 7.46484,-4.050782 12.82421,-10.394532 16,-18.945313 3.375,-9.085937 2.61328,-16.40625 -2.21875,-22.011719 -4.88672,-5.609374 -12.96485,-8.386718 -24.21875,-8.386718 z M 23.714844,147.61719 78.433594,0.484375 h 74.695316 c 23.94531,0 40.83203,4.5 50.68359,13.542969 9.85547,9.042968 11.77344,21.722656 5.71094,38.050781 -4.95313,13.335937 -14.19922,23.976563 -27.65625,31.832031 -13.52344,7.894532 -29.2461,11.824219 -47.17578,11.824219 H 94.003906 L 74.636719,147.73047 Z m 276.070316,0.0586 -17.48438,-65.89453 85.99609,-81.296875 h 27.52344 l -62.17187,58.632813 23.95703,88.453122 z m -96.92188,-0.0547 54.72656,-147.136715 h 52.375 L 255.23828,147.62109 Z m 203.25,-0.1289 46.64844,-125.406252 h -49.79688 l 8.02735,-21.601563 h 151.96484 l -8.02344,21.601563 h -49.79687 l -46.6875,125.507812 z m 0,0"
         id="path1" />
      <path
         style="fill:#0c1e42;fill-opacity:1;fill-rule:nonzero;stroke:none"
         d="m 28.875,133.73047 50.972656,0.004 -4.054687,10.90235 -50.96875,-0.004 z m 0,0"
         id="path2" />
      <path
         style="fill:#0c1e42;fill-opacity:1;fill-rule:nonzero;stroke:none"
         d="m 208.02734,133.74609 52.3711,-0.004 -4.05078,10.89453 -52.375,0.008 z m 0,0"
         id="path3" />
      <path
         style="fill:#0c1e42;fill-opacity:1;fill-rule:nonzero;stroke:none"
         d="m 411.22266,133.75 52.375,0.004 -4.05469,10.89843 h -52.375 z m 0,0"
         id="path4" />
      <path
         style="fill:#0c1e42;fill-opacity:1;fill-rule:nonzero;stroke:none"
         d="m 296.13281,133.80078 57.7461,0.0156 2.92968,10.8125 -57.77734,0.0898 z m 0,0"
         id="path5" />
      <path
         style="fill:#0c1e42;fill-opacity:1;fill-rule:nonzero;stroke:none"
         d="M 112.09375,24.695312 91.484375,80.171875 h 11.734375 c 12.49609,0 22.46094,-2.042969 29.94531,-6.136719 7.46485,-4.050781 12.82813,-10.390625 16.00391,-18.945312 3.375,-9.082032 2.60937,-16.40625 -2.22266,-22.007813 -4.88672,-5.609375 -12.96094,-8.386719 -24.21484,-8.386719 z M 15.496094,147.60937 68.53125,4.808594 h 74.70312 c 23.9375,0 40.82422,4.5 50.67579,13.542968 9.85546,9.039063 11.77734,21.726563 5.71484,38.050782 -4.95703,13.335937 -14.20313,23.976562 -27.65625,31.832031 -13.52344,7.894531 -29.24609,11.824215 -47.17969,11.824215 H 84.101562 l -17.679687,47.60547 z m 273.257816,0.0859 -16.35547,-61.589841 86,-81.296875 h 27.52343 l -62.17578,58.632812 22.79297,84.152344 z M 194.64453,147.64062 247.69141,4.808594 H 300.0625 L 247.02344,147.625 Z M 397.90625,147.46094 442.85937,26.410156 H 393.0625 l 8.02344,-21.601562 h 151.96875 l -8.01953,21.601562 H 495.23828 L 450.21094,147.64844 Z m 0,0"
         id="path6" />
      <path
         style="fill:#ffeb00;fill-opacity:1;fill-rule:nonzero;stroke:none"
         d="m 20.230469,134.87891 h 50.941406 l -4.050781,10.90234 H 16.175781 Z m 0,0"
         id="path7" />
      <path
         style="fill:#ffeb00;fill-opacity:1;fill-rule:nonzero;stroke:none"
         d="m 199.37891,134.89453 52.375,-0.008 -4.04688,10.90625 h -52.375 z m 0,0"
         id="path8" />
      <path
         style="fill:#ffeb00;fill-opacity:1;fill-rule:nonzero;stroke:none"
         d="m 402.57422,134.89844 h 52.37109 l -4.04297,10.89843 -52.375,0.004 z m 0,0"
         id="path9" />
      <path
         style="fill:#ffeb00;fill-opacity:1;fill-rule:nonzero;stroke:none"
         d="m 285.36328,134.92969 57.75,0.0117 2.92578,10.8125 -57.77734,0.0898 z m 0,0"
         id="path10" />
      <path
         style="fill:#e3000c;fill-opacity:1;fill-rule:nonzero;stroke:none"
         d="m 37.601562,178.24219 6.574219,-15.42578 H 22.691406 l 1.84375,-4.77344 h 21.675782 l 2.769531,-6.42188 h -30.59375 l -6.609375,15.39063 h 21.636718 l -2.113281,4.77344 H 9.742188 l -2.769532,6.45703 z m -36.96875,3.98437 6.226563,-14.42578 h 21.597656 l -1.421875,3.23047 H 5.433594 L 15.503906,147.60156 H 55.320312 L 49.09375,162.0625 h -21.5625 l 1.269531,-3.23047 h 21.675781 l -9.992187,23.39453 z m 52.457032,-3.98437 7.652344,-5.0586 3.226562,5.0586 h 5.957031 l 6.304688,-4.19532 9.609375,-22.42578 h -6.574219 l -6.761719,15.67969 h -5.421875 l 6.726563,-15.67969 h -6.574219 l -6.722656,15.67969 h -5.457031 l 6.761718,-15.67969 h -6.570312 l -10.109375,23.53516 2,3.08594 z m -8.375,3.98437 -4.34375,-6.71094 11.992187,-27.91406 H 68.15625 l -6.765625,15.71485 H 57.625 l 6.726562,-15.71485 h 15.796876 l -6.726563,15.71485 h -3.800781 l 6.761718,-15.71485 h 15.792969 l -12.449219,29.02735 -8.417968,5.59765 h -9.800782 l -2.113281,-3.30078 -4.917969,3.30078 z m 46.503906,-3.98437 11.41406,-26.6211 h -8.996091 l -11.414063,26.6211 z m -15.335938,3.98437 14.875,-34.625 h 18.175778 l -14.832028,34.625 z m 52.960938,-3.98437 6.57031,-15.42578 h -21.48437 l 1.84375,-4.77344 h 21.67968 l 2.76563,-6.42188 H 109.625 l -6.60937,15.39063 h 21.63671 l -2.11328,4.77344 h -21.55859 l -2.769532,6.45703 z m -36.972656,3.98437 6.226562,-14.42578 h 21.597654 l -1.42187,3.23047 H 96.671875 l 10.070315,-23.42969 h 39.8164 l -6.22656,14.46094 h -21.55859 l 1.26562,-3.23047 h 21.67969 l -9.99219,23.39453 z m 74.597656,-3.98437 6.57031,-15.42578 h -21.48437 l 1.84375,-4.77344 h 21.67578 l 2.76953,-6.42188 H 147.25 l -6.60938,15.39063 h 21.63672 l -2.11328,4.77344 h -21.55859 l -2.76953,6.45703 z m -36.97266,3.98437 6.22657,-14.42578 h 21.60156 l -1.42578,3.23047 h -21.59766 l 10.07031,-23.42969 h 39.8125 l -6.22656,14.46094 h -21.55859 l 1.26562,-3.23047 h 21.67969 l -9.99219,23.39453 z m 69.79297,-3.98437 3.4961,-8.17969 5.26953,8.17969 h 11.64453 l -8.91797,-13.88282 19.14062,-12.73828 h -9.30078 l -13.91406,9.25782 3.99609,-9.25782 h -8.99218 l -11.41407,26.6211 z m -15.33594,3.98437 14.875,-34.625 h 18.21875 l -0.92578,2.08203 3.15625,-2.08203 h 24.01953 l -26.82812,17.86719 10.80078,16.75781 h -21.67578 l -2.07422,-3.1914 -1.34766,3.1914 z m 69.44922,-21.17187 -1.42187,3.23047 h -3.41797 l 1.45703,-3.23047 z m -15.37109,17.1875 1.91797,-4.48438 h 12.60547 l -1.92188,4.48438 h 9.03516 l 11.375,-26.6211 h -30.59375 l -11.41406,26.6211 z m 5.60937,-13.16797 2.07813,-4.76953 h 12.64062 l -2.07421,4.76953 z m -20.94531,17.15234 14.875,-34.625 h 39.77344 l -14.79297,34.625 h -18.21875 l 1.92578,-4.48437 h -3.42187 l -1.92188,4.48437 z m 69.25781,-23.39453 -1.23437,3.23047 h -3.49609 l 1.26953,-3.23047 z m -16.29687,19.41016 2.88281,-6.7461 h 8.76172 l 2.30469,3.66016 -1.34375,3.08594 h 9.03125 l 3.30469,-7.85547 -1.69141,-2.65625 3.99609,-2.65625 4.46094,-10.36719 -2,-3.08594 h -27.28906 l -11.41406,26.6211 z m 6.72266,-15.42578 1.84765,-4.77344 h 12.60547 l -1.88281,4.77344 z m -22.05469,19.41015 14.87109,-34.625 h 32.58985 l 4.34375,6.7461 -5.73047,13.3125 -1.80469,1.18359 0.76953,1.18359 -5.1875,12.19922 h -18.21875 l 2.88281,-6.71094 h -3.42187 l -2.87891,6.71094 z M 325.30859,178.24219 333,160.30469 h 9.60547 l 3.6875,-8.6836 h -30.59375 l -3.72656,8.6836 h 9.60937 l -7.6875,17.9375 z m -17.71484,3.98437 7.68359,-17.9414 h -9.60547 l 7.14844,-16.6836 h 39.77735 l -7.10938,16.6836 h -9.60547 l -7.6875,17.9414 z m 72.17578,-3.98437 7.6875,-17.9375 h 9.60938 l 3.6875,-8.6836 h -30.59375 l -3.72657,8.6836 h 9.60547 l -7.68359,17.9375 z m -17.71484,3.98437 7.68359,-17.9414 h -9.60937 l 7.14843,-16.6836 h 39.77735 l -7.10547,16.6836 h -9.60938 l -7.6875,17.9414 z m 61.10547,-3.98437 2.73046,-6.45703 h -17.83593 l 2.11718,-4.77344 h 12.02735 l 1.76953,-4.19531 h -11.87891 l 1.84766,-4.77344 h 17.87109 l 2.76563,-6.42188 h -26.78906 l -11.41407,26.6211 z m -33.12891,3.98437 14.87109,-34.625 h 36.01172 l -6.22265,14.46094 h -17.75782 l 1.26953,-3.23047 h 12.10547 l -5.22656,12.19922 h -12.06641 l 1.42188,-3.23047 h 17.75391 l -6.14844,14.42578 z m 64.52734,-21.17187 -1.42187,3.23047 h -3.41797 l 1.46094,-3.23047 z m -15.37109,17.1875 1.91797,-4.48438 h 12.60937 l -1.92578,4.48438 h 9.03516 l 11.375,-26.6211 h -30.59375 l -11.41406,26.6211 z m 5.60937,-13.16797 2.07813,-4.76953 h 12.64062 l -2.07421,4.76953 z m -20.94531,17.15234 14.875,-34.625 h 39.77735 l -14.79688,34.625 h -18.21875 l 1.92188,-4.48437 h -3.41797 l -1.92188,4.48437 z m 50.57422,-3.98437 6.69141,-15.71485 h 5.41797 l -6.72657,15.71485 h 6.61328 l 6.72266,-15.71485 h 5.38281 l -6.6875,15.71485 h 6.60938 l 11.375,-26.6211 h -9.29688 l -7.57422,5.02344 -3.23046,-5.02344 h -10.49219 l -11.41406,26.6211 z m -12.94922,3.98437 14.875,-34.625 h 15.79688 l 2.07031,3.30078 4.96094,-3.30078 H 516.125 l -14.79297,34.625 h -15.79687 l 6.6875,-15.67969 h 3.80859 l -6.73047,15.67969 h -15.79297 l 6.72656,-15.67969 h 3.80079 l -6.72266,15.67969 z m 0,0"
         id="path11" />
    </g>
  </defs>
  <g
     id="surface1"
     transform="translate(-0.63281195,-0.484375)">
    <use
       xlink:href="#surface7"
       id="use11"
       transform="matrix(0.54900822,0,0,1,0.28539301,0)" />
  </g>
</svg>
