<?xml version="1.0" encoding="UTF-8" standalone="no"?>
<!-- Created with Inkscape (http://www.inkscape.org/) -->

<svg
   version="1.1"
   id="svg1"
   width="1600"
   height="800"
   viewBox="0 0 1600 800"
   sodipodi:docname="logo_af_radiator_vettoriale.svg"
   inkscape:version="1.4.3 (0d15f75, 2025-12-25)"
   xmlns:inkscape="http://www.inkscape.org/namespaces/inkscape"
   xmlns:sodipodi="http://sodipodi.sourceforge.net/DTD/sodipodi-0.dtd"
   xmlns="http://www.w3.org/2000/svg"
   xmlns:svg="http://www.w3.org/2000/svg">
  <defs
     id="defs1" />
  <sodipodi:namedview
     id="namedview1"
     pagecolor="#ffffff"
     bordercolor="#000000"
     borderopacity="0.25"
     inkscape:showpageshadow="2"
     inkscape:pageopacity="0.0"
     inkscape:pagecheckerboard="0"
     inkscape:deskcolor="#d1d1d1"
     inkscape:zoom="1.00875"
     inkscape:cx="799.50434"
     inkscape:cy="400"
     inkscape:window-width="1920"
     inkscape:window-height="1009"
     inkscape:window-x="-8"
     inkscape:window-y="-8"
     inkscape:window-maximized="1"
     inkscape:current-layer="layer-MC1">
    <inkscape:page
       x="0"
       y="0"
       inkscape:label="1"
       id="page1"
       width="1600"
       height="800"
       margin="174.88667 109.96 173.55333 109.96067"
       bleed="0" />
  </sodipodi:namedview>
  <g
     id="layer-MC0"
     inkscape:groupmode="layer"
     inkscape:label="Livello 1" />
  <g
     id="layer-MC1"
     inkscape:groupmode="layer"
     inkscape:label="Livello 2">
    <path
       id="path1"
       d="M 0,0 71.496,38.095 71.498,0 Z m 750.203,123.15 c -1.919,0.96 -4.022,1.436 -6.169,1.439 -29.766,0.046 -319.271,0.475 -334.666,-0.004 -9.001,-0.279 -14.26,-12.531 -16.137,-17.901 -0.603,-1.727 -1.517,-3.325 -2.71,-4.713 L 234.82,-79.116 c -0.437,-0.509 -1.271,-0.208 -1.271,0.463 0,0 0.445,166.259 0.638,184.146 0.102,9.498 -3.885,14.696 -7.951,17.644 -3.646,2.643 -8.107,3.923 -12.611,3.923 H 82.253 c -18.982,0 -13.033,-16.512 -11.134,-22.846 0.439,-1.464 -3.027,-3.024 -4.351,-3.789 L -263.647,-90.343 c -1.57,-0.905 -3.071,-1.947 -4.339,-3.241 -9.459,-9.65 -2.208,-22.24 5.853,-22.244 6.454,-0.004 67.592,-0.002 86.817,-10e-4 3.678,0 7.183,1.416 9.832,3.968 6.713,6.465 25.141,22.211 32.295,26.872 8.813,5.743 32.628,19.411 42.509,25.158 2.189,1.273 4.679,1.935 7.211,1.92 l 154.323,-0.923 c 0,0 0.19,-14.044 0.05,-18.856 -0.14,-4.846 0.585,-9.431 -3.685,-13.143 -3.43,-2.981 -8.853,-4.832 -8.634,-13.66 0.28,-11.338 16.414,-11.335 16.414,-11.335 H 369.99 c 7.14,0 11.68,7.586 11.942,12.944 0.261,5.359 5.643,11.574 5.643,11.574 l 59.444,65.982 H 611.44 c 4.836,0 2.764,-2.072 10.018,-3.109 2.825,-0.403 5.755,0.084 8.279,0.829 3.973,1.173 7.505,3.491 10.309,6.54 8.22,8.937 28.326,31.467 29.934,33.074 1.966,1.966 4.873,5.215 4.873,6.583 v 7.181 c 0,2.393 -0.171,5.129 -1.539,7.203 -1.368,2.074 -6.07,5.021 -9.489,5.363 -3.42,0.342 -10.771,0.085 -14.875,-1.624 -4.103,-1.71 -20.858,-1.877 -20.858,-1.877 L 496.76,34.776 526.812,66.9 c 0,0 184.801,1.727 187.564,0 2.763,-1.727 2.418,-2.073 11.054,-2.073 1.779,0 3.353,0.176 4.73,0.456 4.172,0.846 7.679,3.617 9.6,7.416 3.897,7.704 12.775,25.484 16.758,35.306 3.467,8.552 -2.191,13.083 -6.315,15.145"
       style="fill:#ffffff;fill-opacity:1;fill-rule:nonzero;stroke:none"
       transform="matrix(1.3333333,0,0,-1.3333333,476.58,346.30053)" />
    <path
       id="path2"
       d="M 0,0 71.496,38.095 71.498,0 Z m 750.203,123.15 c -1.919,0.96 -4.022,1.436 -6.169,1.439 -29.766,0.046 -319.271,0.475 -334.666,-0.004 -9.001,-0.279 -14.26,-12.531 -16.137,-17.901 -0.603,-1.727 -1.517,-3.325 -2.71,-4.713 L 234.82,-79.116 c -0.437,-0.509 -1.271,-0.208 -1.271,0.463 0,0 0.445,166.259 0.638,184.146 0.102,9.498 -3.885,14.696 -7.951,17.644 -3.646,2.643 -8.107,3.923 -12.611,3.923 H 82.253 c -18.982,0 -13.033,-16.512 -11.134,-22.846 0.439,-1.464 -3.027,-3.024 -4.351,-3.789 L -263.647,-90.343 c -1.57,-0.905 -3.071,-1.947 -4.339,-3.241 -9.459,-9.65 -2.208,-22.24 5.853,-22.244 6.454,-0.004 67.592,-0.002 86.817,-10e-4 3.678,0 7.183,1.416 9.832,3.968 6.713,6.465 25.141,22.211 32.295,26.872 8.813,5.743 32.628,19.411 42.509,25.158 2.189,1.273 4.679,1.935 7.211,1.92 l 154.323,-0.923 c 0,0 0.19,-14.044 0.05,-18.856 -0.14,-4.846 0.585,-9.431 -3.685,-13.143 -3.43,-2.981 -8.853,-4.832 -8.634,-13.66 0.28,-11.338 16.414,-11.335 16.414,-11.335 H 369.99 c 7.14,0 11.68,7.586 11.942,12.944 0.261,5.359 5.643,11.574 5.643,11.574 l 59.444,65.982 H 611.44 c 4.836,0 2.764,-2.072 10.018,-3.109 2.825,-0.403 5.755,0.084 8.279,0.829 3.973,1.173 7.505,3.491 10.309,6.54 8.22,8.937 28.326,31.467 29.934,33.074 1.966,1.966 4.873,5.215 4.873,6.583 v 7.181 c 0,2.393 -0.171,5.129 -1.539,7.203 -1.368,2.074 -6.07,5.021 -9.489,5.363 -3.42,0.342 -10.771,0.085 -14.875,-1.624 -4.103,-1.71 -20.858,-1.877 -20.858,-1.877 L 496.76,34.776 526.812,66.9 c 0,0 184.801,1.727 187.564,0 2.763,-1.727 2.418,-2.073 11.054,-2.073 1.779,0 3.353,0.176 4.73,0.456 4.172,0.846 7.679,3.617 9.6,7.416 3.897,7.704 12.775,25.484 16.758,35.306 3.467,8.552 -2.191,13.083 -6.315,15.145 z"
       style="fill:none;stroke:#000000;stroke-width:5;stroke-linecap:butt;stroke-linejoin:miter;stroke-miterlimit:10;stroke-dasharray:none;stroke-opacity:1"
       transform="matrix(1.3333333,0,0,-1.3333333,476.58,346.30053)" />
    <path
       id="path3"
       d="M 0,0 -109.995,1.883 0,61.913 Z m -7.887,-93.607 h 53.996 l -6.042,7.246 V 118.194 H 0.883 l 3.939,-10.976 -342.781,-201.76 h 83.486 c 23.723,23.724 86.75,57.115 86.75,57.115 L 2.147,-37.76 c 0,0 0.97,-25.287 0.561,-36.74 C 2.299,-85.952 -7.887,-93.607 -7.887,-93.607"
       style="fill:#009640;fill-opacity:1;fill-rule:nonzero;stroke:none"
       transform="matrix(1.3333333,0,0,-1.3333333,585.22107,356.06067)" />
    <path
       id="path4"
       d="M 0,0 61.66,80.585 H 383.389 L 365.684,49.45 c 0,0 -4.884,2.442 -20.146,3.052 -15.262,0.611 -182.2,0.843 -182.2,0.843 L 106.1,-9.143 c 0,0 146.918,-0.713 159.027,0.013 12.11,0.727 32.938,2.664 32.938,2.664 l -30.758,-35.601 c 0,0 -13.563,4.117 -20.344,4.359 -6.781,0.242 -163.945,-4.261 -163.945,-4.261 L 5.986,-130.466 H 0 Z"
       style="fill:#e30514;fill-opacity:1;fill-rule:nonzero;stroke:none"
       transform="matrix(1.3333333,0,0,-1.3333333,953.39907,306.91547)" />
    <path
       id="path5"
       d="m 0,0 -8.578,-5.594 v -184.989 c 0,0 0.373,-9.324 1.865,-11.189 1.492,-1.865 -90.534,-0.016 -90.534,-0.016 0,0 -0.905,-7.438 2.356,-7.446 3.007,-0.008 100.858,0.003 100.858,0.003 0,0 -4.475,5.221 -4.848,11.189 C 0.746,-192.075 0,0 0,0"
       style="fill:#959596;fill-opacity:1;fill-rule:nonzero;stroke:none"
       transform="matrix(1.3333333,0,0,-1.3333333,768.28987,201.90333)" />
    <path
       id="path6"
       d="m 0,0 c 0,0 6.694,1.674 11.715,5.69 h 107.11 V 0 Z"
       style="fill:#959596;fill-opacity:1;fill-rule:nonzero;stroke:none"
       transform="matrix(1.3333333,0,0,-1.3333333,794.96533,480.87013)" />
    <path
       id="path7"
       d="M 0,0 H 1.458 C 3.16,0 4.539,0.567 4.539,1.945 4.539,3.161 3.649,3.972 1.702,3.972 0.891,3.972 0.323,3.891 0,3.809 Z M -0.081,-7.539 H -3.163 V 5.756 C -1.946,5.999 -0.244,6.16 1.946,6.16 4.458,6.16 5.593,5.756 6.567,5.188 7.295,4.62 7.863,3.566 7.863,2.27 7.863,0.81 6.728,-0.324 5.107,-0.812 V -0.973 C 6.404,-1.459 7.135,-2.432 7.539,-4.216 7.944,-6.243 8.188,-7.053 8.511,-7.539 H 5.188 c -0.404,0.486 -0.649,1.702 -1.053,3.242 -0.244,1.459 -1.054,2.108 -2.756,2.108 h -1.46 z m -8.188,6.97 c 0,-5.917 4.378,-10.619 10.376,-10.619 5.837,0 10.134,4.702 10.134,10.539 0,5.917 -4.297,10.701 -10.215,10.701 -5.917,0 -10.295,-4.784 -10.295,-10.621 m 23.915,0 c 0,-7.538 -5.918,-13.456 -13.62,-13.456 -7.619,0 -13.7,5.918 -13.7,13.456 0,7.378 6.081,13.295 13.7,13.295 7.702,0 13.62,-5.917 13.62,-13.295"
       style="fill:#000000;fill-opacity:1;fill-rule:nonzero;stroke:none"
       transform="matrix(1.3333333,0,0,-1.3333333,728.2804,217.09307)" />
    <path
       id="path8"
       d="m 0,0 h -39.037 l 6.721,15.443 H 4.296 c 1.729,0 3.104,-1.465 2.966,-3.189 C 6.902,7.733 3.238,0 0,0 M 42.146,27.484 H -66.709 l -30.652,-70.361 h 42.495 l 11.146,27.866 h 22.989 l 8.62,-27.866 h 42.235 v 2.504 c 0,0 -7.027,8.233 -7.189,13.076 -0.161,4.843 0,11.946 0,11.946 0,0 8.718,-0.023 14.368,5.235 5.65,5.258 11.725,19.038 13.076,23.016 2.528,7.44 0.161,14.584 -8.233,14.584"
       style="fill:#009640;fill-opacity:1;fill-rule:nonzero;stroke:none"
       transform="matrix(1.3333333,0,0,-1.3333333,260.15027,565.93467)" />
    <path
       id="path9"
       d="m 0,0 h -39.037 l 6.721,15.443 H 4.296 c 1.729,0 3.104,-1.465 2.966,-3.189 C 6.902,7.733 3.238,0 0,0 Z M 42.146,27.484 H -66.709 l -30.652,-70.361 h 42.495 l 11.146,27.866 h 22.989 l 8.62,-27.866 h 42.235 v 2.504 c 0,0 -7.027,8.233 -7.189,13.076 -0.161,4.843 0,11.946 0,11.946 0,0 8.718,-0.023 14.368,5.235 5.65,5.258 11.725,19.038 13.076,23.016 2.528,7.44 0.161,14.584 -8.233,14.584 z"
       style="fill:none;stroke:#000000;stroke-width:3;stroke-linecap:butt;stroke-linejoin:miter;stroke-miterlimit:10;stroke-dasharray:none;stroke-opacity:1"
       transform="matrix(1.3333333,0,0,-1.3333333,260.15027,565.93467)" />
    <path
       id="path10"
       d="M 0,0 26.153,21.538 34.285,0 Z M 90.198,-31.348 61.98,38.904 H 18.948 v -4.998 l -76.787,-65.368 h 27.123 l 15.45,16.692 h 53.614 c 4.233,-3.175 2.822,-16.578 2.822,-16.578 z"
       style="fill:#009640;fill-opacity:1;fill-rule:nonzero;stroke:#000000;stroke-width:3;stroke-linecap:butt;stroke-linejoin:miter;stroke-miterlimit:10;stroke-dasharray:none;stroke-opacity:1"
       transform="matrix(1.3333333,0,0,-1.3333333,377.62227,581.16067)" />
    <path
       id="path11"
       d="M 0,0 26.153,21.538 34.285,0 Z M 90.198,-31.348 61.981,38.904 H 18.948 v -4.998 l -76.787,-65.368 h 27.123 l 15.45,16.692 h 53.614 c 4.233,-3.175 2.822,-16.578 2.822,-16.578 z"
       style="fill:#ffffff;fill-opacity:1;fill-rule:nonzero;stroke:#000000;stroke-width:3;stroke-linecap:butt;stroke-linejoin:miter;stroke-miterlimit:10;stroke-dasharray:none;stroke-opacity:1"
       transform="matrix(1.3333333,0,0,-1.3333333,828.0416,581.16067)" />
    <path
       id="path12"
       d="m 0,0 h -39.037 l 6.721,15.443 H 4.296 c 1.73,0 3.104,-1.465 2.966,-3.189 C 6.902,7.733 3.238,0 0,0 M 42.146,27.484 H -66.709 l -30.652,-70.361 h 42.495 l 11.146,27.866 h 22.989 l 8.62,-27.866 h 42.235 v 2.504 c 0,0 -7.027,8.233 -7.189,13.076 -0.161,4.843 0,11.946 0,11.946 0,0 8.718,-0.023 14.368,5.235 5.65,5.258 11.725,19.038 13.076,23.016 2.528,7.44 0.161,14.584 -8.233,14.584"
       style="fill:#e30514;fill-opacity:1;fill-rule:nonzero;stroke:none"
       transform="matrix(1.3333333,0,0,-1.3333333,1401.2125,565.93467)" />
    <path
       id="path13"
       d="m 0,0 h -39.037 l 6.721,15.443 H 4.296 c 1.73,0 3.104,-1.465 2.966,-3.189 C 6.902,7.733 3.238,0 0,0 Z M 42.146,27.484 H -66.709 l -30.652,-70.361 h 42.495 l 11.146,27.866 h 22.989 l 8.62,-27.866 h 42.235 v 2.504 c 0,0 -7.027,8.233 -7.189,13.076 -0.161,4.843 0,11.946 0,11.946 0,0 8.718,-0.023 14.368,5.235 5.65,5.258 11.725,19.038 13.076,23.016 2.528,7.44 0.161,14.584 -8.233,14.584 z"
       style="fill:none;stroke:#000000;stroke-width:3;stroke-linecap:butt;stroke-linejoin:miter;stroke-miterlimit:10;stroke-dasharray:none;stroke-opacity:1"
       transform="matrix(1.3333333,0,0,-1.3333333,1401.2125,565.93467)" />
    <path
       id="path14"
       d="m 0,0 h -45.168 l 21.805,48.802 h 42.745 z m 49.897,58.022 c -1.939,-0.003 -111.651,0.06 -111.651,0.06 l 0.573,-2.424 -28.389,-67.865 c 0,0 91.667,-0.136 109.196,-0.136 15.132,0 19.223,11.187 19.223,11.187 0,0 18.777,42.124 21.337,48.508 4.279,10.67 -9.434,10.671 -10.289,10.67"
       style="fill:#009640;fill-opacity:1;fill-rule:nonzero;stroke:none"
       transform="matrix(1.3333333,0,0,-1.3333333,617.86867,606.65107)" />
    <path
       id="path15"
       d="m 0,0 h -45.168 l 21.805,48.802 h 42.745 z m 49.897,58.022 c -1.939,-0.003 -111.651,0.06 -111.651,0.06 l 0.573,-2.424 -28.389,-67.865 c 0,0 91.667,-0.136 109.196,-0.136 15.132,0 19.223,11.187 19.223,11.187 0,0 18.777,42.124 21.337,48.508 4.279,10.67 -9.434,10.671 -10.289,10.67 z"
       style="fill:none;stroke:#000000;stroke-width:3;stroke-linecap:butt;stroke-linejoin:miter;stroke-miterlimit:10;stroke-dasharray:none;stroke-opacity:1"
       transform="matrix(1.3333333,0,0,-1.3333333,617.86867,606.65107)" />
    <path
       id="path16"
       d="m 0,0 c -2.629,-6.129 -27.816,-62.358 -27.816,-62.358 0,0 -32.151,0.009 -41.81,0 -0.416,0 -2.847,-0.073 -1.808,2.486 1.752,4.317 29.7,60.841 29.7,60.841 l -0.045,5.027 c 0.376,1.196 1.485,2.011 2.739,2.011 H 0.221 c 1.951,0 4.358,0 3.405,-1.923 0,0 -0.855,-0.537 -1.349,-1.525 C 1.783,3.571 0,0 0,0"
       style="fill:#ffffff;fill-opacity:1;fill-rule:nonzero;stroke:#000000;stroke-width:3;stroke-linecap:butt;stroke-linejoin:miter;stroke-miterlimit:10;stroke-dasharray:none;stroke-opacity:1"
       transform="matrix(1.3333333,0,0,-1.3333333,779.15693,539.9644)" />
    <path
       id="path17"
       d="M 0,0 C 7.548,-0.021 29.372,-0.132 29.372,-0.132 L 6.368,-52.019 c 0,0 -2.391,-3.904 1.383,-3.904 H 48.27 v 9.931 l 21.843,45.86 h 36.255 c 4.579,5.602 3.22,14.574 3.22,14.574 L 4.437,14.442 -5.012,3.681 C -5.012,3.681 -8.306,0.023 0,0"
       style="fill:#e30514;fill-opacity:1;fill-rule:nonzero;stroke:#000000;stroke-width:3;stroke-linecap:butt;stroke-linejoin:miter;stroke-miterlimit:10;stroke-dasharray:none;stroke-opacity:1"
       transform="matrix(1.3333333,0,0,-1.3333333,956.94547,548.5452)" />
    <path
       id="path18"
       d="m 0,0 c -1.683,-4.77 -19.08,-43.491 -19.08,-43.491 h -40.758 c 0,0 -4.851,-0.175 -3.575,3.367 1.707,4.739 21.325,45.175 21.325,45.175 H -2.245 C -2.245,5.051 1.684,4.77 0,0 m 28.059,16.274 h -93.436 c -8.979,0 -14.811,-11.223 -14.811,-11.223 0,0 -19.164,-40.921 -23.35,-50.787 -3.527,-8.315 12.382,-8.355 12.382,-8.355 0,0 74.74,-0.006 91.575,0 13.075,0.004 16.057,4.866 17.819,7.794 1.461,2.426 16.836,39.563 21.325,51.628 4.49,12.066 -11.504,10.943 -11.504,10.943"
       style="fill:#e30514;fill-opacity:1;fill-rule:nonzero;stroke:none"
       transform="matrix(1.3333333,0,0,-1.3333333,1226.0971,550.988)" />
    <path
       id="path19"
       d="m 0,0 c -1.683,-4.77 -19.08,-43.491 -19.08,-43.491 h -40.758 c 0,0 -4.851,-0.175 -3.575,3.367 1.707,4.739 21.325,45.175 21.325,45.175 H -2.245 C -2.245,5.051 1.684,4.77 0,0 Z m 28.059,16.274 h -93.436 c -8.979,0 -14.811,-11.223 -14.811,-11.223 0,0 -19.164,-40.921 -23.35,-50.787 -3.527,-8.315 12.382,-8.355 12.382,-8.355 0,0 74.74,-0.006 91.575,0 13.075,0.004 16.057,4.866 17.819,7.794 1.461,2.426 16.836,39.563 21.325,51.628 4.49,12.066 -11.504,10.943 -11.504,10.943 z"
       style="fill:none;stroke:#000000;stroke-width:3;stroke-linecap:butt;stroke-linejoin:miter;stroke-miterlimit:10;stroke-dasharray:none;stroke-opacity:1"
       transform="matrix(1.3333333,0,0,-1.3333333,1226.0971,550.988)" />
    <path
       id="path20"
       d="m 0,0 2.335,-8.896 c 0,0 5.742,-0.113 17.91,-0.113 10.89,0 15.357,8.717 16.281,10.751 5.144,11.322 14.917,35.144 20.054,44.832 6.539,12.331 -6.921,11.587 -6.921,11.587 L 6.4,58.096 9.509,52.232 H 20.82 Z"
       style="fill:#ffffff;fill-opacity:1;fill-rule:nonzero;stroke:none"
       transform="matrix(1.3333333,0,0,-1.3333333,619.26547,608.97387)" />
    <path
       id="path21"
       d="m 0,0 -21.176,-48.039 c 0,0 -3.922,-9.804 -12.941,-9.804 -9.02,0 -15.959,-0.011 -15.959,-0.011 l 1.422,-5.42 c 0,0 9.481,-0.119 17.91,-0.113 11.319,-0.206 15.599,8.344 18.262,15.005 2.53,6.328 14.575,31.912 19.293,43.348 C 7.439,-3.514 7.795,0 6.817,-0.004 6.54,-0.005 0,0 0,0"
       style="fill:#959596;fill-opacity:1;fill-rule:nonzero;stroke:none"
       transform="matrix(1.3333333,0,0,-1.3333333,687.25027,536.4696)" />
    <path
       id="path22"
       d="m 0,0 c 0,0 -7.208,-1.057 -9.396,-6.309 -3.576,-8.585 -23.876,-53.166 -23.876,-53.166 l -27.011,-0.007 -3.214,-6.122 34.002,-0.029 z"
       style="fill:#959596;fill-opacity:1;fill-rule:nonzero;stroke:none"
       transform="matrix(1.3333333,0,0,-1.3333333,780.11133,533.6192)" />
    <path
       id="path23"
       d="M 0,0 24.694,22.714 90.259,22.758 81.981,16.682 27.218,16.673 11.766,-0.02 Z"
       style="fill:#959596;fill-opacity:1;fill-rule:nonzero;stroke:none"
       transform="matrix(1.3333333,0,0,-1.3333333,770.53733,621.10347)" />
    <path
       id="path24"
       d="M 0,0 -3.414,0.021 -34.278,-25.498 H -42.08 L -5.127,4.769 H 0 Z"
       style="fill:#959596;fill-opacity:1;fill-rule:nonzero;stroke:none"
       transform="matrix(1.3333333,0,0,-1.3333333,868.35147,549.19693)" />
    <path
       id="path25"
       d="M 0,0 45.289,0.063 18.478,67.013 10.711,63.473 33.434,6.18 5.028,5.933 Z"
       style="fill:#959596;fill-opacity:1;fill-rule:nonzero;stroke:none"
       transform="matrix(1.3333333,0,0,-1.3333333,885.01067,621.10053)" />
  </g>
</svg>
