<?xml version="1.0" encoding="UTF-8" standalone="no"?>
<!-- Created with Inkscape (http://www.inkscape.org/) -->

<svg
   version="1.1"
   id="svg1"
   width="377.45999"
   height="124.32"
   viewBox="0 0 377.45999 124.32"
   sodipodi:docname="Logo DFR Engines.svg"
   inkscape:version="1.4.3 (0d15f75, 2025-12-25)"
   xmlns:inkscape="http://www.inkscape.org/namespaces/inkscape"
   xmlns:sodipodi="http://sodipodi.sourceforge.net/DTD/sodipodi-0.dtd"
   xmlns="http://www.w3.org/2000/svg"
   xmlns:svg="http://www.w3.org/2000/svg">
  <defs
     id="defs1" />
  <sodipodi:namedview
     id="namedview1"
     pagecolor="#ffffff"
     bordercolor="#000000"
     borderopacity="0.25"
     inkscape:showpageshadow="2"
     inkscape:pageopacity="0.0"
     inkscape:pagecheckerboard="0"
     inkscape:deskcolor="#d1d1d1"
     inkscape:zoom="4.7051344"
     inkscape:cx="188.83626"
     inkscape:cy="62.166131"
     inkscape:window-width="1920"
     inkscape:window-height="1009"
     inkscape:window-x="-8"
     inkscape:window-y="-8"
     inkscape:window-maximized="1"
     inkscape:current-layer="g1">
    <inkscape:page
       x="0"
       y="0"
       inkscape:label="1"
       id="page1"
       width="377.45999"
       height="124.32"
       margin="0"
       bleed="0" />
  </sodipodi:namedview>
  <g
     id="g1"
     inkscape:groupmode="layer"
     inkscape:label="1">
    <path
       id="path1"
       d="m 282.652,27.824 c -1.547,-5.144 -6.246,-8.695 -11.617,-8.773 H 144.922 l -11.551,17.648 c 0,-4.144 -1.566,-8.129 -4.379,-11.168 -3.656,-4.203 -8.98,-6.574 -14.551,-6.48 H 95.863 C 89.195,4.977 73.66,-2.598 58.465,0.82 43.27,4.234 32.469,17.727 32.461,33.301 c 0,1.254 0.074,2.504 0.215,3.75 0,0.301 0.047,0.562 0.07,0.75 0.074,0.57 0.141,1.07 0.215,1.5 -0.481,0.414 -0.899,0.898 -1.234,1.437 L 0,92.422 h 76.078 c 9.309,0.144 18.492,-2.184 26.606,-6.75 1.14,-0.66 2.332,-1.445 3.578,-2.34 l -5.477,9.09 h 38.016 L 153.609,67.5 h 30.051 l -1.41,2.301 h -15.621 l -17.305,23.426 h 95.746 l 0.621,-0.153 c 1.637,-0.363 3.188,-1.035 4.575,-1.972 2.289,-1.582 15.504,-21.301 15.504,-21.301 h -3.594 c 0.375,-0.93 0.676,-1.762 0.894,-2.489 0.539,-1.734 0.793,-3.546 0.75,-5.363 0.75,-0.426 1.5,-0.922 2.364,-1.5 3.601,-2.258 6.777,-5.133 9.382,-8.488 l 0.387,-0.52 0.098,-0.132 c 1.59,-2.2 5.25,-10.352 5.25,-10.352 0.086,-0.262 0.152,-0.508 0.219,-0.75 l 0.156,-0.562 c 1.48,-5.211 1.785,-8.977 0.976,-11.821 z"
       style="fill:#000000;fill-opacity:1;fill-rule:nonzero;stroke:none"
       transform="scale(1.3333333)" />
    <path
       id="path2"
       d="m 125.012,29.047 c -2.645,-3.067 -6.524,-4.789 -10.571,-4.688 H 75.246 L 65.242,39.645 h 62.43 c 1.035,-3.754 0.023,-7.778 -2.66,-10.598 z"
       style="fill:#ffffff;fill-opacity:1;fill-rule:nonzero;stroke:none"
       transform="scale(1.3333333)" />
    <path
       id="path3"
       d="m 114.441,26.609 c 3.407,-0.101 6.672,1.344 8.887,3.93 1.758,1.832 2.649,4.328 2.445,6.856 H 69.406 l 7.055,-10.786 h 37.98 m 0,-2.25 H 75.246 L 65.242,39.645 h 62.43 c 1.039,-3.754 0.031,-7.778 -2.656,-10.598 -2.641,-3.067 -6.52,-4.789 -10.567,-4.688 z"
       style="fill:#ff4700;fill-opacity:1;fill-rule:nonzero;stroke:none"
       transform="scale(1.3333333)" />
    <path
       id="path4"
       d="m 127.059,45.555 h -20.747 c -1.164,3.707 -2.757,7.265 -4.746,10.605 -3.57,5.672 -8.785,10.121 -14.949,12.75 -4.07,1.875 -7.726,2.813 -10.972,2.813 -1.61,0.031 -3.211,-0.282 -4.696,-0.907 L 86.641,45.523 H 62.684 L 37.418,87.129 h 38.66 c 8.379,0.129 16.637,-1.973 23.934,-6.082 3.539,-2.063 7.836,-5.543 12.886,-10.442 6.235,-6.05 10.954,-14.402 14.161,-25.05 z"
       style="fill:#ffffff;fill-opacity:1;fill-rule:nonzero;stroke:none"
       transform="scale(1.3333333)" />
    <path
       id="path5"
       d="m 123.969,47.805 c -3.039,8.871 -7.285,15.992 -12.641,21.187 -4.894,4.746 -9.082,8.153 -12.433,10.102 C 91.934,83 84.062,84.996 76.078,84.879 H 41.422 l 22.5,-37.074 h 18.676 l -13.559,21.855 -1.367,2.203 2.371,1.043 c 1.769,0.75 3.68,1.125 5.602,1.098 3.554,0 7.566,-1.016 11.902,-3 6.57,-2.832 12.125,-7.594 15.93,-13.652 1.808,-3.016 3.296,-6.215 4.441,-9.54 h 16.051 m 3.09,-2.25 h -20.747 c -1.164,3.708 -2.757,7.266 -4.746,10.606 -3.57,5.672 -8.785,10.121 -14.949,12.75 -4.07,1.875 -7.726,2.812 -10.972,2.812 -1.61,0.032 -3.211,-0.281 -4.696,-0.906 L 86.641,45.531 H 62.684 L 37.418,87.129 h 38.66 c 8.379,0.129 16.637,-1.973 23.934,-6.082 3.539,-2.063 7.836,-5.543 12.886,-10.442 6.235,-6.05 10.954,-14.402 14.161,-25.05 z"
       style="fill:#ff4700;fill-opacity:1;fill-rule:nonzero;stroke:none"
       transform="scale(1.3333333)" />
    <path
       id="path6"
       d="m 204.621,24.367 h -56.824 l -10,15.278 h 57.555 z"
       style="fill:#ffffff;fill-opacity:1;fill-rule:nonzero;stroke:none"
       transform="scale(1.3333333)" />
    <path
       id="path7"
       d="m 200.625,26.609 -6.539,10.786 h -52.125 l 7.051,-10.786 h 51.613 m 3.996,-2.25 h -56.832 l -9.992,15.286 h 57.547 z"
       style="fill:#ff4700;fill-opacity:1;fill-rule:nonzero;stroke:none"
       transform="scale(1.3333333)" />
    <path
       id="path8"
       d="m 192.211,45.555 h -57.164 l -24.879,41.574 h 25.613 l 14.805,-24.926 h 31.258 z"
       style="fill:#ffffff;fill-opacity:1;fill-rule:nonzero;stroke:none"
       transform="scale(1.3333333)" />
    <path
       id="path9"
       d="m 188.152,47.805 -7.558,12.148 h -31.293 l -0.66,1.098 -14.145,23.828 h -20.324 l 22.187,-37.074 h 51.832 m 4.047,-2.25 H 135.047 L 110.16,87.129 h 25.613 l 14.805,-24.926 h 31.258 l 10.336,-16.648 z"
       style="fill:#ff4700;fill-opacity:1;fill-rule:nonzero;stroke:none"
       transform="scale(1.3333333)" />
    <path
       id="path10"
       d="m 276.504,38.512 c 0,-0.09 0.051,-0.18 0.074,-0.262 1.156,-4.148 1.5,-7.148 0.969,-9 -0.418,-1.379 -1.266,-2.59 -2.426,-3.449 -1.144,-0.961 -2.59,-1.492 -4.086,-1.5 h -55.41 l -9.496,15.105 h 49.148 c 1.059,0.141 3.45,0.867 1.371,3.629 -1.086,1.567 -3.261,2.25 -5.25,2.461 h -47.976 l -12.426,20.25 -2.137,3.473 h 22.969 l 4.563,-7.231 h 22.957 l -4.426,7.258 h 21.75 c 0.512,-1.125 0.957,-2.277 1.336,-3.457 0.73,-2.258 0.676,-4.699 -0.156,-6.922 1.937,-0.668 3.769,-1.621 5.429,-2.828 3.09,-1.922 5.817,-4.375 8.055,-7.242 l 0.336,-0.453 0.047,-0.067 c 1.179,-1.683 2.183,-3.484 3,-5.371 0.48,-1.043 1.035,-2.25 1.5,-3.441 h 0.035 c 0.074,-0.293 0.16,-0.637 0.25,-0.953 z"
       style="fill:#2dc5f4;fill-opacity:1;fill-rule:nonzero;stroke:none"
       transform="scale(1.3333333)" />
    <path
       id="path11"
       d="m 271.035,26.609 c 0.985,0.004 1.942,0.348 2.699,0.977 0.782,0.57 1.356,1.379 1.645,2.301 0.223,0.797 0.394,2.851 -0.977,7.785 l -0.039,0.137 v 0.089 l -0.082,0.286 v 0.058 l -0.164,0.465 c -0.359,1.012 -0.808,1.996 -1.254,2.941 l -0.14,0.321 c -0.77,1.765 -1.719,3.445 -2.828,5.019 -0.098,0.133 -0.204,0.262 -0.309,0.399 -2.082,2.66 -4.621,4.929 -7.5,6.703 -2.563,1.719 -4.004,2.324 -4.762,2.527 l -2.398,0.653 0.883,2.316 c 0.656,1.766 0.691,3.699 0.097,5.484 -0.148,0.508 -0.375,1.133 -0.668,1.852 h -16.297 l 2.325,-3.801 2.093,-3.43 h -28.238 l -0.66,1.051 -3.891,6.18 H 192.863 V 66.879 L 204.637,47.73 h 47.027 c 3.199,-0.406 5.488,-1.5 6.75,-3.375 1.535,-2.062 1.379,-3.644 0.973,-4.621 -0.578,-1.371 -1.989,-2.308 -3.864,-2.562 h -45.351 l 6.668,-10.606 h 54.164 m 0,-2.25 h -55.379 l -9.496,15.106 h 49.148 c 1.059,0.14 3.45,0.867 1.371,3.629 -1.086,1.566 -3.261,2.25 -5.25,2.461 h -47.976 l -12.426,20.25 -2.137,3.472 h 22.969 l 4.563,-7.23 h 22.957 l -4.426,7.242 h 21.75 c 0.512,-1.125 0.957,-2.277 1.336,-3.457 0.73,-2.258 0.676,-4.699 -0.156,-6.922 1.937,-0.668 3.769,-1.621 5.429,-2.828 3.09,-1.922 5.817,-4.375 8.055,-7.242 l 0.336,-0.453 0.047,-0.067 c 1.179,-1.683 2.183,-3.484 3,-5.371 0.48,-1.043 1.035,-2.25 1.5,-3.441 h 0.035 c 0.098,-0.328 0.18,-0.637 0.269,-0.953 0,-0.09 0.055,-0.18 0.079,-0.262 1.152,-4.148 1.5,-7.148 0.964,-9 -0.414,-1.379 -1.261,-2.59 -2.421,-3.449 -1.145,-0.961 -2.59,-1.492 -4.086,-1.5 z"
       style="fill:#ff4700;fill-opacity:1;fill-rule:nonzero;stroke:none"
       transform="scale(1.3333333)" />
    <path
       id="path12"
       d="m 176.504,79.449 -2.332,3.375 h -6 l -1.25,1.762 h 6 l -2.453,3.336 h -10.883 l 6,-8.473 z m 3.105,-4.32 -2.187,3.117 h -12.086 l 3.367,-3.117 z"
       style="fill:#ffffff;fill-opacity:1;fill-rule:nonzero;stroke:none"
       transform="scale(1.3333333)" />
    <path
       id="path13"
       d="m 190.727,79.449 -6,8.473 h -4.661 l 3.692,-5.145 -1.621,-2.476 -5.473,7.621 h -4.246 l 6.035,-8.473 z m 3.066,-4.32 -2.289,3.098 h -12.141 l 2.25,-3.098 h 4.207 l 1.598,2.617 1.816,-2.617 z"
       style="fill:#ffffff;fill-opacity:1;fill-rule:nonzero;stroke:none"
       transform="scale(1.3333333)" />
    <path
       id="path14"
       d="m 204.211,79.914 -2.59,3.645 c -0.648,0.933 -1.433,1.765 -2.324,2.472 -1.57,1.242 -3.52,1.907 -5.52,1.891 h -2.25 c -2.152,0 -3.195,-0.606 -3.14,-1.836 0.011,-0.469 0.113,-0.93 0.297,-1.359 0.195,-0.418 0.433,-0.813 0.707,-1.184 l 2.945,-4.094 h 4.375 l -2.777,3.84 c -0.114,0.145 -0.215,0.301 -0.297,0.465 -0.106,0.246 -0.055,0.402 0.156,0.48 h 2.641 c 0.492,-0.164 0.91,-0.507 1.16,-0.961 l 0.136,-0.226 h -2.746 l 3.34,-3.133 z m 3.187,-4.785 -2.117,3.098 h -12.105 c 0.621,-0.793 1.359,-1.481 2.191,-2.043 0.766,-0.61 1.695,-0.977 2.672,-1.055 z"
       style="fill:#ffffff;fill-opacity:1;fill-rule:nonzero;stroke:none"
       transform="scale(1.3333333)" />
    <path
       id="path15"
       d="m 211.141,79.449 -6.039,8.473 h -4.5 l 6.074,-8.473 z m 3,-4.32 -2.25,3.117 h -4.5 l 2.25,-3.117 z"
       style="fill:#ffffff;fill-opacity:1;fill-rule:nonzero;stroke:none"
       transform="scale(1.3333333)" />
    <path
       id="path16"
       d="m 225.172,79.449 -6,8.473 h -4.656 l 3.687,-5.145 -1.625,-2.476 -5.445,7.621 h -4.246 l 6.039,-8.473 z m 3.066,-4.32 -2.285,3.098 h -12.121 l 2.25,-3.098 h 4.207 l 1.598,2.617 1.816,-2.617 z"
       style="fill:#ffffff;fill-opacity:1;fill-rule:nonzero;stroke:none"
       transform="scale(1.3333333)" />
    <path
       id="path17"
       d="m 237.988,79.449 -2.367,3.375 h -6 l -1.254,1.762 h 6 l -2.445,3.336 H 221.07 l 6,-8.473 z m 3.106,-4.32 -2.188,3.117 h -12.082 l 3.367,-3.117 z"
       style="fill:#ffffff;fill-opacity:1;fill-rule:nonzero;stroke:none"
       transform="scale(1.3333333)" />
    <path
       id="path18"
       d="m 247.254,86.738 c -0.859,0.567 -1.816,0.969 -2.82,1.184 h -10.118 l 2.512,-3.488 h 7.012 c 0.566,-0.028 1.07,-0.372 1.297,-0.891 0.109,-0.191 0.164,-0.41 0.16,-0.629 -0.039,-0.105 -0.176,-0.219 -0.43,-0.316 h -3.578 c -0.75,0 -1.266,-0.196 -1.453,-0.586 -0.156,-0.645 -0.051,-1.328 0.301,-1.899 l 0.285,-0.652 h 8.195 c 0.633,0.008 1.25,0.219 1.754,0.601 0.195,0.352 0.371,0.715 0.527,1.086 -0.054,0.704 -0.234,1.391 -0.535,2.028 -0.683,1.453 -1.761,2.687 -3.109,3.562 z m 8.25,-11.609 -2.184,3.082 h -12 c 0.653,-0.836 1.446,-1.547 2.348,-2.102 0.801,-0.57 1.746,-0.91 2.73,-0.98 z"
       style="fill:#ffffff;fill-opacity:1;fill-rule:nonzero;stroke:none"
       transform="scale(1.3333333)" />
    <path
       id="path19"
       d="m 38.023,36.512 c -0.066,0.074 -0.066,0.101 0,0.652 0.09,0.883 0.254,1.758 0.481,2.617 0.375,0.117 0.754,0.215 1.141,0.285 0.378,0.067 0.753,0.153 1.125,0.262 0,0 0.699,2.024 0.886,2.633 l 0.051,0.187 -0.75,0.84 c -0.266,0.293 -0.519,0.602 -0.75,0.922 0.395,1.028 0.898,2.012 1.5,2.934 0.402,0.011 0.805,-0.016 1.199,-0.082 1.02,-0.121 1.11,-0.121 1.156,-0.055 l 0.891,1.199 0.844,1.141 -0.453,1.019 c -0.172,0.368 -0.317,0.746 -0.442,1.133 0,0.106 0.172,0.301 1.094,1.215 0.367,0.406 0.766,0.781 1.195,1.117 0.637,-0.191 1.258,-0.445 1.852,-0.75 l 0.293,-0.125 1.199,0.856 c 0.887,0.636 1.199,0.883 1.207,0.957 0.008,0.078 0,0.57 -0.09,1.148 0,0.113 0,0.219 0,0.317 L 63.57,37.156 c -3.918,-2.906 -0.343,-8.992 4.102,-6.984 l 1.187,-1.957 c -3.355,-1.715 -4.968,-5.606 -3.812,-9.188 0.265,-0.738 0.621,-1.441 1.058,-2.093 1.149,-1.606 2.879,-2.711 4.821,-3.075 0.265,-0.05 0.551,-0.097 0.625,-0.105 0.601,-0.047 1.207,-0.047 1.808,0 2.93,0.379 5.387,2.406 6.313,5.215 0.266,0.761 0.383,1.562 0.351,2.367 h 10.27 c -0.238,-0.524 -0.527,-1.027 -0.863,-1.5 -0.399,-0.008 -0.797,0.023 -1.192,0.09 -1.011,0.113 -1.109,0.113 -1.156,0.054 -0.043,-0.058 -0.426,-0.585 -0.883,-1.207 l -0.84,-1.14 0.45,-1.012 c 0.171,-0.371 0.32,-0.75 0.441,-1.141 0,-0.105 -0.164,-0.292 -1.086,-1.214 -0.371,-0.403 -0.773,-0.774 -1.203,-1.11 -0.391,0.098 -0.77,0.246 -1.125,0.442 l -1.02,0.464 -1.199,-0.863 c -0.441,-0.265 -0.847,-0.586 -1.207,-0.953 0,-0.051 0,-0.57 0.09,-1.152 0.055,-0.375 0.078,-0.75 0.066,-1.125 C 78.938,9.543 78.27,9.176 77.574,8.871 76.891,8.535 76.703,8.469 76.621,8.496 76.301,8.727 75.996,8.977 75.711,9.246 75.445,9.516 75.16,9.77 74.859,9.996 74.684,9.961 72.098,9.121 72.066,9.098 72.039,9.074 71.934,8.566 71.797,7.965 71.723,7.578 71.625,7.195 71.504,6.816 70.441,6.539 69.355,6.371 68.258,6.316 68.027,6.637 67.82,6.973 67.637,7.32 l -0.551,0.969 h -3 L 63.555,7.371 C 63.262,6.871 62.984,6.414 62.941,6.352 62.895,6.293 62.82,6.238 62.023,6.352 61.219,6.434 60.422,6.59 59.641,6.809 59.512,7.18 59.41,7.562 59.348,7.949 59.227,8.551 59.109,9.047 59.094,9.066 59.078,9.09 58.461,9.301 57.734,9.531 57.008,9.766 56.391,9.977 56.355,9.996 56.316,10.02 56.031,9.797 55.441,9.246 55.145,8.98 54.84,8.73 54.516,8.496 c -0.094,0 -0.418,0.106 -1.364,0.586 -0.554,0.246 -1.086,0.547 -1.582,0.902 -0.011,0.399 0.016,0.797 0.082,1.192 0.121,1.027 0.121,1.109 0.051,1.16 l -1.207,0.887 -1.133,0.839 -1.011,-0.449 c -0.372,-0.172 -0.75,-0.32 -1.141,-0.441 -0.109,0 -0.289,0.164 -1.215,1.086 -0.402,0.367 -0.773,0.769 -1.109,1.199 0.093,0.387 0.238,0.754 0.429,1.102 0.246,0.543 0.45,1.007 0.45,1.027 0,0.023 -0.383,0.586 -0.848,1.246 -0.809,1.117 -0.871,1.191 -0.992,1.191 l -1.137,-0.109 c -0.363,-0.055 -0.727,-0.074 -1.09,-0.062 -0.426,0.632 -0.797,1.296 -1.101,1.996 -0.336,0.699 -0.407,0.879 -0.375,0.961 0.234,0.312 0.484,0.613 0.75,0.898 0.273,0.266 0.523,0.551 0.75,0.855 0,0.157 -0.879,2.766 -0.907,2.79 -0.031,0.023 -0.496,0.136 -1.066,0.257 -0.57,0.118 -1.078,0.239 -1.133,0.262 -0.051,0.02 -0.14,0.156 -0.269,0.848 -0.176,0.804 -0.282,1.621 -0.317,2.445 0.324,0.231 0.664,0.438 1.016,0.621 l 0.957,0.547 v 3 l -0.945,0.547 c -0.356,0.191 -0.7,0.402 -1.036,0.633 z m 10.5,-15.438 c 1.118,-3.437 4.485,-5.625 8.079,-5.25 2.605,0.278 4.886,1.86 6.062,4.199 0.344,0.68 0.598,1.403 0.75,2.149 0.086,0.812 0.086,1.629 0,2.441 -0.199,1.192 -0.66,2.321 -1.352,3.309 -0.941,1.328 -2.281,2.324 -3.824,2.844 -1.582,0.515 -3.285,0.515 -4.867,0 -0.707,-0.262 -1.383,-0.606 -2.012,-1.02 -0.679,-0.531 -1.289,-1.141 -1.812,-1.824 -1.41,-1.992 -1.785,-4.531 -1.024,-6.848 z m -3.418,17.672 c 0.485,-3.855 3.868,-6.684 7.747,-6.48 0.464,-0.016 0.925,0.023 1.382,0.121 1.957,0.398 3.684,1.551 4.805,3.207 0.82,1.199 1.281,2.609 1.32,4.058 0.125,3.856 -2.629,7.207 -6.433,7.832 -0.809,0.102 -1.625,0.102 -2.43,0 -3.184,-0.507 -5.707,-2.945 -6.324,-6.105 -0.106,-0.469 -0.145,-0.949 -0.121,-1.426 -0.008,-0.402 0.008,-0.808 0.054,-1.207 z"
       style="fill:#ff4700;fill-opacity:1;fill-rule:nonzero;stroke:none"
       transform="scale(1.3333333)" />
    <path
       id="path20"
       d="m 49.816,59.055 c 0,-0.082 -0.367,-0.375 -1.394,-1.102 l -1.383,-0.992 -0.328,0.152 -1.574,0.703 c -0.344,0.145 -0.742,0.075 -1.016,-0.179 L 43.199,56.73 c -1.062,-1.058 -1.265,-1.281 -1.265,-1.402 0.144,-0.449 0.316,-0.887 0.515,-1.312 l 0.293,-0.668 C 42.879,53.039 42.84,52.68 42.637,52.41 L 42,51.531 40.973,50.152 c -0.051,-0.082 -0.149,-0.074 -1.336,0.059 -0.453,0.082 -0.914,0.113 -1.371,0.09 -0.692,-1.059 -1.266,-2.192 -1.711,-3.375 0.277,-0.371 0.574,-0.727 0.894,-1.063 l 0.852,-0.968 -0.067,-0.211 c -0.058,-0.2 -0.164,-0.532 -0.285,-0.899 -0.25,-0.765 -1.281,-0.887 -1.703,-0.203 l -25.98,42.09 -0.832,1.441 h 22.914 c 0.324,0 0.629,-0.168 0.8,-0.441 L 49.762,59.844 c 0.039,-0.422 0.062,-0.742 0.054,-0.789 z"
       style="fill:#00cc00;fill-opacity:1;fill-rule:nonzero;stroke:none"
       transform="scale(1.3333333)" />
    <path
       id="path21"
       d="m 49.816,59.055 c 0,-0.082 -0.367,-0.375 -1.394,-1.102 l -1.383,-0.992 -0.328,0.152 c -0.684,0.367 -1.399,0.664 -2.137,0.891 -0.496,-0.383 -0.953,-0.809 -1.375,-1.274 -1.062,-1.058 -1.265,-1.281 -1.265,-1.402 0.144,-0.449 0.316,-0.887 0.515,-1.312 L 42.961,52.844 42,51.531 40.973,50.152 c -0.039,-0.058 -0.106,-0.066 -0.563,0 L 17.578,87.121 H 32.871 L 49.762,59.852 c 0.039,-0.43 0.062,-0.75 0.054,-0.797 z"
       style="fill:#ffffff;fill-opacity:1;fill-rule:nonzero;stroke:none"
       transform="scale(1.3333333)" />
    <path
       id="path22"
       d="m 49.816,59.055 c 0,-0.082 -0.367,-0.375 -1.394,-1.102 l -1.383,-0.992 -0.328,0.152 C 46.027,57.48 45.312,57.777 44.574,58.004 44.121,57.656 43.703,57.27 43.32,56.852 L 24.637,87.121 h 8.25 l 16.89,-27.269 c 0.024,-0.43 0.047,-0.75 0.039,-0.797 z"
       style="fill:#ff0000;fill-opacity:1;fill-rule:nonzero;stroke:none"
       transform="scale(1.3333333)" />
  </g>
</svg>
