<?xml version="1.0" encoding="UTF-8" standalone="no"?>
<svg xmlns="http://www.w3.org/2000/svg" xmlns:xlink="http://www.w3.org/1999/xlink" clip-rule="evenodd" stroke-miterlimit="10" viewBox="0 0 566.93 566.93">
    <desc>SVG generated by Lineform</desc>
    <defs/>
    <g>
        <path d="M 323.73 295.97 C 327.14 295.77 330.87 294.60 334.06 296.52 C 339.50 299.03 340.71 307.19 336.74 311.52 C 333.66 315.47 328.17 315.15 323.71 315.79 C 323.64 309.19 323.64 302.59 323.73 295.97 " fill-rule="non-zero" fill="#FEFFFE"/>
        <path d="M 283.57 5.15 L 294.19 5.15 C 309.92 6.81 324.03 18.23 328.89 33.29 C 333.94 47.79 330.25 65.03 319.35 75.93 C 311.26 84.47 299.37 89.20 287.63 88.55 C 272.22 88.44 257.61 78.54 251.25 64.60 C 244.64 50.92 246.43 33.65 255.63 21.57 C 262.34 12.70 272.57 6.79 283.57 5.15 M 21.72 18.68 C 74.37 18.76 127.00 18.70 179.63 18.72 C 179.65 27.09 179.65 35.47 179.63 43.84 C 146.53 50.23 113.57 60.17 84.70 77.95 C 68.41 88.38 52.79 101.97 45.71 120.46 C 39.52 136.11 42.60 154.37 51.99 168.09 C 64.89 187.49 85.13 200.41 105.59 210.68 C 105.66 227.26 105.59 243.87 105.63 260.47 C 77.67 260.47 49.72 260.47 21.76 260.47 C 21.74 179.87 21.80 99.28 21.72 18.68 M 382.36 18.70 C 415.74 18.72 449.10 18.74 482.46 18.68 C 504.82 99.28 527.28 179.87 549.66 260.47 C 520.85 260.45 492.02 260.51 463.21 260.43 C 461.08 250.28 458.38 240.25 456.52 230.04 C 438.44 230.19 420.34 230.22 402.26 230.02 C 399.82 240.18 397.10 250.28 394.59 260.43 C 365.87 260.51 337.17 260.47 308.45 260.45 C 310.37 253.87 312.38 247.33 314.39 240.81 C 352.30 236.93 390.13 228.94 425.11 213.45 C 444.37 204.75 463.00 193.60 477.24 177.76 C 488.16 165.93 495.71 149.90 493.98 133.50 C 492.21 114.96 479.96 99.19 465.83 87.90 C 439.18 66.67 406.29 55.25 373.55 47.36 C 376.49 37.80 379.30 28.20 382.36 18.70 M 93.92 81.50 C 120.24 66.00 149.89 57.18 179.65 51.18 C 179.65 61.92 179.65 72.67 179.65 83.42 C 154.96 83.44 130.28 83.41 105.61 83.42 C 105.61 93.82 105.63 104.22 105.59 114.60 C 127.62 114.58 149.66 114.58 171.69 114.62 C 171.66 134.82 171.67 155.04 171.69 175.25 C 149.65 175.25 127.62 175.27 105.59 175.23 C 105.63 180.88 105.63 186.52 105.59 192.17 C 88.61 183.75 71.47 173.35 61.01 157.04 C 53.78 145.89 52.14 131.34 57.36 119.04 C 64.23 102.40 78.96 90.67 93.92 81.50 M 320.88 219.62 C 337.71 164.49 354.61 109.37 371.42 54.22 C 398.24 60.80 424.89 69.78 448.19 84.92 C 462.09 94.18 475.45 106.29 480.61 122.69 C 484.75 135.18 481.69 149.23 474.00 159.69 C 463.77 174.02 448.39 183.58 432.90 191.37 C 397.83 207.92 359.27 215.71 320.88 219.62 M 429.88 117.96 C 424.93 137.30 420.19 156.70 415.29 176.07 C 424.74 176.12 434.19 176.07 443.66 176.12 C 438.79 156.80 434.60 137.32 429.88 117.96 M 213.20 103.92 C 238.67 103.92 264.13 103.92 289.61 103.92 C 289.61 143.21 289.61 182.52 289.61 221.80 C 264.11 222.84 238.58 221.93 213.20 219.40 C 213.20 180.91 213.20 142.41 213.20 103.92 M 213.20 239.86 C 238.56 242.80 264.11 243.36 289.61 242.47 C 289.61 248.30 289.61 254.14 289.61 259.97 C 264.13 259.95 238.67 259.95 213.20 259.97 C 213.20 253.26 213.20 246.57 213.20 239.86 M 34.32 294.20 C 41.44 290.55 49.59 292.40 56.65 295.15 C 57.34 294.28 58.70 292.51 59.37 291.61 C 59.74 297.43 60.12 303.24 60.47 309.08 C 58.53 305.42 57.25 301.25 54.23 298.29 C 48.30 292.12 36.37 293.53 32.33 301.19 C 28.00 308.78 27.71 318.32 30.15 326.58 C 32.55 334.33 41.26 338.95 49.06 337.11 C 54.82 336.10 58.25 330.92 62.54 327.53 C 57.23 340.63 38.78 344.36 28.45 335.06 C 16.04 324.17 19.06 300.99 34.32 294.20 M 72.84 292.66 C 80.06 293.24 87.34 293.35 94.54 292.47 C 92.30 294.11 87.57 294.20 87.60 297.65 C 87.29 310.10 87.21 322.59 87.64 335.02 C 87.98 338.45 92.23 337.87 94.61 339.16 C 87.92 339.32 81.23 339.23 74.54 339.29 C 77.19 338.00 81.40 337.20 80.82 333.34 C 80.84 321.49 81.12 309.64 80.69 297.80 C 80.56 293.79 75.55 294.13 72.84 292.66 M 105.38 292.64 C 112.63 293.25 119.94 293.22 127.21 292.73 C 124.84 293.87 121.86 294.09 120.01 296.12 C 118.91 302.55 119.70 309.13 119.49 315.62 C 125.90 309.15 133.95 303.84 138.13 295.49 C 136.21 294.58 134.31 293.66 132.39 292.79 C 138.41 293.14 144.45 293.12 150.48 292.92 C 140.09 296.78 133.38 306.00 125.57 313.34 C 135.93 321.71 143.40 334.11 156.09 339.17 C 148.83 339.30 141.56 339.23 134.27 339.30 C 135.80 338.00 137.31 336.70 138.84 335.41 C 132.67 328.70 125.79 322.70 119.51 316.10 C 119.90 322.94 118.52 330.02 120.33 336.71 C 122.40 337.66 124.56 338.45 126.69 339.25 C 119.77 339.25 112.84 339.27 105.91 339.23 C 108.31 337.87 112.82 338.35 112.86 334.70 C 113.27 322.44 113.23 310.10 112.88 297.84 C 112.88 294.02 107.81 294.19 105.38 292.64 M 188.28 292.53 C 195.55 293.31 202.87 293.31 210.14 292.53 C 207.81 293.79 204.55 294.02 202.97 296.35 C 202.13 301.68 202.85 307.14 201.92 312.49 C 202.42 313.42 202.93 314.33 203.47 315.24 C 209.00 308.41 217.05 303.63 221.04 295.58 C 219.66 294.88 216.89 293.48 215.51 292.79 C 221.68 293.14 227.88 293.14 234.07 292.97 C 225.25 295.38 219.31 302.63 213.10 308.80 C 211.91 310.36 209.69 311.87 209.94 314.07 C 212.15 317.39 215.34 319.90 218.19 322.66 C 224.77 328.76 230.38 336.60 239.44 339.14 C 231.78 339.29 224.12 339.36 216.46 339.12 C 218.17 338.30 219.89 337.48 221.60 336.68 C 217.43 328.23 208.03 324.08 203.36 315.92 C 203.10 316.51 202.57 317.72 202.31 318.32 L 202.18 319.98 C 202.50 324.94 202.33 329.91 202.76 334.85 C 202.89 338.37 207.74 337.83 209.99 339.12 C 202.87 339.30 195.73 339.36 188.60 339.06 C 191.09 338.00 195.66 338.43 195.73 334.65 C 196.07 322.38 196.05 310.08 195.73 297.80 C 195.60 294.04 190.78 294.06 188.28 292.53 M 261.43 321.77 C 266.22 311.67 270.24 301.21 275.59 291.41 C 281.18 305.13 286.33 319.01 291.99 332.71 C 293.00 336.25 296.48 337.70 299.45 339.30 C 292.89 339.25 286.33 339.19 279.77 339.27 C 281.85 338.45 283.75 337.35 285.49 335.95 C 284.57 331.81 283.03 327.86 281.57 323.91 C 275.52 323.82 269.46 323.84 263.42 323.84 C 261.50 328.12 259.36 332.43 259.12 337.20 C 260.81 337.65 264.22 338.52 265.92 338.97 C 260.68 339.29 255.43 339.27 250.19 339.32 C 256.83 335.78 258.30 327.97 261.43 321.77 M 264.43 321.51 C 269.78 321.45 275.11 321.45 280.44 321.45 C 277.98 315.24 275.46 309.06 273.06 302.83 C 270.26 309.09 267.47 315.36 264.43 321.51 M 309.38 292.58 C 318.57 293.70 327.90 292.28 337.06 293.74 C 343.54 294.74 348.96 301.64 346.34 308.18 C 344.88 313.01 339.81 314.89 335.49 316.31 C 342.67 324.19 346.41 336.42 357.78 339.19 C 353.36 339.23 348.93 339.25 344.51 339.30 C 339.11 332.28 334.33 324.71 328.46 318.08 C 327.29 317.89 324.92 317.50 323.75 317.31 C 324.21 323.91 322.22 331.16 325.00 337.31 C 326.47 337.74 329.43 338.62 330.91 339.06 C 323.84 339.36 316.74 339.34 309.68 339.06 C 312.16 337.98 316.78 338.48 316.85 334.70 C 317.21 322.36 317.19 309.99 316.85 297.65 C 316.67 293.89 311.91 294.04 309.38 292.58 M 323.73 295.97 C 323.64 302.59 323.64 309.19 323.71 315.79 C 328.17 315.15 333.66 315.47 336.74 311.52 C 340.71 307.19 339.50 299.03 334.06 296.52 C 330.87 294.60 327.14 295.77 323.73 295.97 M 413.78 292.79 C 421.07 293.20 428.39 293.25 435.66 292.60 C 433.28 293.65 430.56 294.17 428.54 295.90 C 427.33 306.41 428.39 317.03 427.98 327.60 C 428.26 330.77 427.26 334.35 429.23 337.16 C 431.28 337.89 433.43 338.48 435.53 339.10 C 428.30 339.32 421.05 339.32 413.82 339.08 C 416.47 338.02 421.14 338.52 421.24 334.61 C 421.72 324.19 421.24 313.75 421.46 303.34 C 421.18 300.71 421.95 297.61 420.32 295.32 C 418.18 294.35 416.00 293.51 413.78 292.79 M 445.54 293.37 C 449.83 293.12 454.11 293.05 458.40 292.99 C 468.00 304.81 477.76 316.51 487.55 328.20 C 487.60 318.10 487.97 307.98 487.47 297.89 C 487.62 293.85 482.42 294.26 479.98 292.88 C 486.00 293.14 492.04 293.12 498.06 292.71 C 495.50 294.13 490.47 293.98 490.57 297.91 C 490.02 312.26 490.57 326.63 490.32 341.00 C 479.44 328.48 468.97 315.62 458.31 302.93 C 458.40 313.38 458.03 323.86 458.42 334.31 C 458.08 338.00 462.24 337.89 464.70 338.69 C 464.70 338.84 464.68 339.14 464.66 339.29 C 458.92 339.27 453.20 339.36 447.48 338.88 C 449.71 338.47 451.95 338.09 454.21 337.74 C 457.06 325.16 454.63 311.98 455.57 299.16 C 452.73 296.42 449.19 294.71 445.54 293.37 M 519.81 294.95 C 527.67 290.42 537.14 292.17 545.23 295.14 C 545.69 294.22 546.62 292.40 547.11 291.50 C 547.59 296.89 547.95 302.29 548.38 307.68 C 546.05 303.86 544.46 299.20 540.49 296.70 C 533.22 292.21 522.23 294.56 518.32 302.42 C 512.65 312.84 514.14 328.31 524.37 335.35 C 529.68 339.19 536.49 337.91 542.13 335.63 C 541.74 329.22 543.10 322.53 541.22 316.33 C 539.65 315.80 536.56 314.72 535.01 314.18 C 541.61 313.92 548.23 313.85 554.81 314.29 C 553.09 314.76 551.40 315.21 549.68 315.64 C 547.89 322.46 548.88 329.56 548.58 336.53 C 537.14 341.73 521.33 342.36 512.63 331.91 C 502.70 320.85 507.19 301.94 519.81 294.95 M 364.36 304.16 C 364.26 300.45 364.45 296.72 364.75 293.03 C 377.24 293.10 389.74 293.09 402.23 293.05 C 402.49 296.74 402.82 300.43 403.10 304.12 C 401.59 301.77 400.44 299.22 398.71 297.02 C 395.18 294.43 390.56 295.62 386.54 295.29 C 386.52 306.67 386.54 318.06 386.48 329.45 C 386.29 332.33 386.95 335.15 387.90 337.87 C 389.52 338.11 392.76 338.62 394.38 338.86 C 387.24 339.51 380.07 339.32 372.93 339.03 C 376.01 338.07 380.85 337.68 379.94 333.14 C 380.09 320.50 379.92 307.86 379.98 295.25 C 375.97 295.83 370.96 294.15 367.77 297.34 C 366.56 299.55 365.42 301.85 364.36 304.16 M 17.98 366.66 C 29.27 366.18 40.81 365.34 51.99 367.02 C 48.64 368.38 41.72 368.51 42.78 373.86 C 48.17 392.18 55.74 409.79 62.00 427.83 C 66.40 415.04 71.61 402.50 75.55 389.59 C 73.85 383.92 71.91 378.24 69.06 373.04 C 66.90 368.92 61.79 368.43 58.01 366.61 C 69.14 365.71 80.30 366.42 91.44 366.14 C 91.87 366.51 92.73 367.26 93.16 367.63 C 88.33 367.46 81.57 369.74 83.99 375.96 C 89.24 393.57 96.66 410.52 102.61 427.92 C 108.03 412.36 113.75 396.91 119.25 381.39 C 120.65 377.79 120.96 373.97 121.02 370.17 C 117.46 368.99 113.85 367.97 110.29 366.81 C 119.59 365.68 129.03 366.05 138.37 366.61 C 133.77 368.43 128.49 370.45 127.02 375.76 C 118.15 399.87 109.75 424.19 101.02 448.38 C 100.07 448.27 98.17 448.07 97.22 447.96 C 91.20 431.16 84.88 414.47 78.72 397.73 C 73.40 412.90 67.76 427.94 62.43 443.11 C 61.31 445.24 60.99 449.69 57.56 448.07 C 47.83 423.32 39.37 398.05 29.59 373.32 C 27.82 368.51 21.99 368.38 17.98 366.66 M 185.91 365.88 C 199.50 362.00 215.00 365.25 225.39 374.99 C 242.96 390.07 243.41 420.30 226.58 436.08 C 216.18 447.10 199.54 450.62 185.17 446.74 C 171.47 443.20 160.12 431.74 156.80 417.97 C 154.10 406.56 155.09 393.80 161.52 383.75 C 167.09 375.09 175.92 368.53 185.91 365.88 M 188.04 369.91 C 176.31 374.08 171.12 387.07 170.18 398.59 C 169.01 411.50 170.33 426.00 179.05 436.27 C 188.41 447.43 207.40 446.22 216.51 435.38 C 223.39 427.27 224.45 416.05 224.42 405.84 C 224.10 395.77 222.57 384.93 216.01 376.84 C 209.38 368.84 197.62 366.79 188.04 369.91 M 372.20 366.14 C 384.95 366.81 397.94 364.97 410.56 367.13 C 406.09 368.51 400.51 367.82 396.97 371.36 C 394.92 375.03 395.43 379.47 395.28 383.51 C 395.52 400.84 395.00 418.21 395.52 435.54 C 395.43 441.82 402.77 441.23 407.09 441.28 C 415.39 440.95 424.48 442.46 432.03 438.25 C 438.05 434.99 439.37 427.59 444.25 423.23 C 442.37 431.09 439.37 438.62 436.91 446.33 C 417.60 446.33 398.30 446.26 378.99 446.37 C 375.93 446.41 372.88 446.22 369.95 445.37 C 373.77 444.10 378.71 444.97 381.69 441.75 C 384.26 436.40 383.07 430.25 383.33 424.53 C 382.96 407.72 383.98 390.83 382.83 374.06 C 382.23 367.97 375.07 368.06 370.49 367.74 C 370.92 367.35 371.78 366.55 372.20 366.14 M 260.83 367.05 C 270.91 365.21 281.26 366.63 291.45 366.16 C 301.89 366.42 314.00 365.68 322.20 373.34 C 329.66 379.56 330.40 391.93 323.79 399.04 C 319.72 404.12 313.22 405.99 307.22 407.59 C 315.27 417.39 322.39 427.96 330.76 437.50 C 335.02 442.68 341.98 443.30 347.75 445.83 C 339.76 446.71 331.71 446.22 323.69 446.30 C 314.15 433.87 304.63 421.44 295.03 409.06 C 292.16 409.04 289.29 409.02 286.42 409.02 C 286.44 417.30 286.29 425.57 286.40 433.87 C 286.68 437.09 286.29 441.34 289.63 443.19 C 292.77 444.68 296.41 444.45 299.75 445.27 C 293.46 447.23 286.79 446.04 280.33 446.32 C 273.86 446.02 267.19 447.21 260.89 445.31 C 265.55 444.12 273.49 444.96 273.84 438.27 C 274.68 423.77 273.93 409.21 274.19 394.69 C 273.90 387.28 274.96 379.71 273.39 372.40 C 271.49 367.39 264.97 368.64 260.83 367.05 M 286.40 371.60 C 286.38 382.88 286.38 394.17 286.40 405.45 C 293.84 405.39 302.21 405.33 308.13 400.12 C 316.52 393.31 315.57 378.26 306.04 372.93 C 300.12 369.24 292.89 370.56 286.40 371.60 M 465.70 366.74 C 480.89 365.71 496.19 366.09 511.40 366.50 C 523.92 367.04 537.51 370.65 545.08 381.46 C 557.51 397.82 555.08 424.03 538.67 436.89 C 526.31 446.78 509.57 446.63 494.55 446.32 C 484.96 445.85 475.17 447.40 465.72 445.37 C 469.79 444.01 475.38 445.16 478.08 441.12 C 479.70 436.36 479.08 431.26 479.22 426.34 C 478.97 409.32 479.55 392.29 478.95 375.29 C 479.18 367.87 470.66 368.55 465.70 366.74 M 491.37 372.01 C 491.42 394.90 491.39 417.78 491.39 440.69 C 500.98 442.57 511.48 443.39 520.44 438.62 C 544.20 426.95 544.82 387.24 521.65 374.60 C 512.44 369.40 501.37 369.81 491.37 372.01 M 33.63 474.38 C 40.83 470.26 49.33 472.09 56.59 475.02 C 57.28 474.10 58.66 472.28 59.37 471.36 C 59.72 477.12 60.12 482.88 60.40 488.64 C 57.77 483.74 55.89 477.51 50.16 475.39 C 42.63 471.87 33.09 476.34 30.71 484.26 C 26.42 495.55 27.73 513.87 42.00 516.87 C 50.48 519.30 56.72 512.76 62.50 507.80 C 56.95 519.82 40.62 523.83 30.00 516.18 C 16.19 506.10 18.24 481.89 33.63 474.38 M 320.23 472.20 C 334.54 469.35 347.94 483.05 346.49 497.16 C 346.54 511.53 331.39 523.70 317.43 519.24 C 301.52 515.44 295.83 493.80 305.32 481.35 C 308.91 476.56 314.30 473.15 320.23 472.20 M 319.59 474.79 C 313.09 476.51 309.86 483.48 309.10 489.65 C 308.21 497.75 308.45 507.02 314.02 513.52 C 319.91 520.56 332.43 518.12 335.99 509.90 C 339.78 501.29 339.42 491.01 335.94 482.36 C 333.50 476.10 325.93 472.72 319.59 474.79 M 412.11 472.65 C 417.40 470.69 422.77 473.21 427.70 475.02 C 428.37 474.08 429.70 472.22 430.37 471.29 C 430.31 477.07 430.37 482.83 430.29 488.60 C 428.28 483.14 426.73 475.91 420.01 474.63 C 414.49 472.37 407.89 478.32 410.17 484.02 C 415.65 491.96 426.64 493.71 432.14 501.67 C 436.43 508.53 431.21 517.75 423.77 519.41 C 417.79 521.40 411.84 518.42 406.16 516.84 C 405.53 517.81 404.30 519.76 403.66 520.73 C 403.85 515.10 403.74 509.48 403.85 503.85 C 405.86 509.36 408.04 516.13 414.73 517.28 C 420.77 519.74 429.70 514.28 426.40 507.39 C 421.22 498.98 409.09 497.88 404.30 489.01 C 401.09 482.58 405.49 474.57 412.11 472.65 M 65.33 473.26 C 72.62 472.91 79.89 472.95 87.18 473.02 C 84.92 474.22 81.51 474.01 80.24 476.53 C 79.63 482.45 80.04 488.42 79.95 494.38 C 87.40 494.32 94.85 494.34 102.31 494.38 C 101.86 488.04 103.35 481.32 101.34 475.26 C 99.77 474.77 96.62 473.81 95.04 473.32 C 102.33 472.85 109.61 472.87 116.90 473.21 C 113.94 474.18 108.46 473.84 108.94 478.39 C 108.78 490.24 108.65 502.13 109.02 513.99 C 108.72 518.35 114.07 517.82 116.90 519.20 C 109.63 518.89 102.36 518.87 95.12 519.35 C 97.39 518.20 100.22 517.84 101.97 515.85 C 102.64 509.48 102.20 503.03 102.29 496.63 C 94.85 496.63 87.40 496.63 79.96 496.63 C 80.00 502.47 79.74 508.30 80.11 514.13 C 79.61 518.05 84.92 517.58 87.18 518.98 C 79.93 519.02 72.66 518.87 65.43 519.33 C 68.13 517.94 73.48 518.35 73.24 514.06 C 73.61 502.13 73.50 490.19 73.29 478.26 C 73.70 473.79 68.26 474.25 65.33 473.26 M 129.59 504.76 C 134.72 493.54 139.47 482.15 145.04 471.16 C 150.89 485.10 155.95 499.36 161.89 513.26 C 163.01 516.48 166.34 517.75 169.03 519.37 C 162.45 518.87 155.85 518.92 149.27 519.09 C 150.78 518.35 153.82 516.86 155.33 516.11 C 153.99 511.94 152.57 507.80 151.10 503.68 C 145.08 503.70 139.04 503.70 133.00 503.68 C 131.03 507.91 128.88 512.18 128.74 516.95 C 130.41 517.45 133.77 518.44 135.44 518.94 C 129.89 519.02 124.32 518.94 118.78 519.33 C 125.29 517.23 126.97 510.26 129.59 504.76 M 134.03 501.44 C 139.36 501.39 144.67 501.39 150.00 501.41 C 147.63 495.37 145.27 489.35 142.79 483.38 C 139.40 489.16 136.90 495.39 134.03 501.44 M 172.44 472.87 C 177.17 473.00 181.92 472.95 186.68 472.95 C 192.21 484.97 197.90 496.90 203.47 508.90 C 209.58 497.06 214.89 484.86 220.61 472.84 C 225.22 472.95 229.82 473.15 234.42 473.32 C 231.68 474.40 226.21 473.92 226.88 478.32 C 226.65 490.09 226.63 501.87 226.88 513.65 C 226.19 518.03 231.63 517.81 234.41 519.24 C 227.10 518.87 219.79 518.87 212.49 519.24 C 214.89 518.37 217.41 517.73 219.63 516.45 C 220.84 504.42 219.83 492.26 220.09 480.20 C 214.09 493.47 207.83 506.62 201.62 519.82 C 195.10 506.74 189.14 493.37 182.89 480.14 C 182.97 491.44 182.58 502.77 183.02 514.08 C 182.82 518.10 187.94 517.99 190.52 519.43 C 184.52 518.94 178.50 518.89 172.49 519.04 C 175.03 517.69 180.43 518.18 180.02 513.95 C 180.28 502.10 180.32 490.24 180.00 478.41 C 180.15 474.36 175.16 474.08 172.44 472.87 M 236.57 473.69 C 245.46 472.67 254.59 472.28 263.42 473.81 C 271.44 475.39 276.19 485.32 271.68 492.39 C 267.58 499.75 257.96 498.83 250.88 497.86 C 251.01 504.31 250.67 510.78 251.66 517.17 C 254.03 517.73 256.40 518.31 258.76 518.92 C 251.40 519.07 244.06 518.91 236.72 519.02 C 239.40 517.73 244.86 518.12 244.23 513.80 C 244.17 500.75 245.20 487.56 243.56 474.59 C 241.80 474.36 238.32 473.92 236.57 473.69 M 251.05 475.37 C 250.94 482.25 250.97 489.11 250.99 495.98 C 254.79 495.96 259.27 497.01 262.32 494.03 C 266.98 489.40 266.26 480.70 261.06 476.81 C 258.09 474.76 254.38 475.50 251.05 475.37 M 275.87 473.04 C 283.18 473.10 290.54 472.44 297.79 473.60 C 295.53 473.86 293.28 474.07 291.02 474.25 C 288.94 479.15 289.68 484.56 289.59 489.74 C 289.77 497.81 289.29 505.90 289.77 513.97 C 289.46 518.29 294.79 517.81 297.60 519.22 C 290.37 518.91 283.12 518.98 275.89 519.05 C 278.16 517.68 283.44 518.03 282.92 514.12 C 283.23 502.24 283.12 490.35 282.99 478.48 C 283.64 474.27 278.50 474.31 275.87 473.04 M 346.67 472.91 C 351.01 472.93 355.34 472.93 359.66 472.93 C 369.33 484.80 379.27 496.47 388.87 508.41 C 388.81 498.41 389.11 488.38 388.79 478.39 C 389.26 473.99 383.93 474.16 381.15 472.95 C 387.19 473.04 393.24 473.04 399.32 472.91 C 396.49 474.14 391.18 474.03 391.70 478.45 C 391.36 492.59 391.75 506.74 391.53 520.88 C 380.70 508.36 370.30 495.46 359.51 482.90 C 359.83 494.04 358.84 505.26 360.00 516.35 C 362.07 517.64 364.40 518.42 366.63 519.37 C 360.65 518.92 354.67 518.91 348.68 519.04 C 351.41 517.62 356.88 518.38 356.51 514.00 C 357.05 502.28 356.44 490.50 356.77 478.76 C 353.74 476.27 350.25 474.48 346.67 472.91 M 438.01 473.04 C 445.28 472.93 452.57 472.91 459.83 473.30 C 457.30 474.33 453.12 473.58 452.06 476.68 C 451.37 482.53 451.84 488.45 451.76 494.34 C 459.20 494.34 466.65 494.34 474.09 494.34 C 474.02 488.42 474.46 482.45 473.79 476.54 C 472.51 473.62 468.57 474.20 466.06 473.17 C 473.31 472.91 480.59 472.95 487.86 473.10 C 485.16 474.38 480.04 474.25 480.73 478.56 C 480.71 491.03 480.26 503.55 480.99 516.00 C 482.87 517.75 485.53 518.25 487.81 519.35 C 480.56 518.87 473.29 518.87 466.04 519.24 C 468.48 518.46 470.94 517.75 473.31 516.73 C 474.91 510.17 473.83 503.31 474.09 496.63 C 466.65 496.63 459.20 496.63 451.76 496.63 C 452.04 503.33 450.91 510.20 452.57 516.76 C 454.93 517.64 457.34 518.40 459.80 519.07 C 452.55 518.92 445.30 518.87 438.07 519.37 C 440.34 518.29 443.00 517.81 444.87 516.00 C 445.60 503.53 445.15 490.99 445.13 478.50 C 445.78 474.29 440.64 474.33 438.01 473.04 M 490.27 473.21 C 497.55 472.89 504.84 472.85 512.13 473.30 C 509.50 474.42 504.17 474.10 504.95 478.45 C 504.93 490.99 504.47 503.57 505.23 516.09 C 507.23 517.68 509.74 518.33 512.03 519.37 C 504.78 518.87 497.52 518.87 490.25 519.24 C 493.10 517.99 498.36 518.31 498.17 514.00 C 498.50 502.13 498.41 490.21 498.22 478.33 C 498.65 473.82 493.21 474.20 490.27 473.21 M 516.13 473.53 C 525.02 472.78 534.14 472.24 542.97 473.81 C 551.00 475.37 555.72 485.32 551.23 492.40 C 547.11 499.75 537.51 498.83 530.43 497.86 C 530.56 504.31 530.22 510.82 531.21 517.23 C 532.98 517.62 536.54 518.37 538.31 518.74 C 530.97 519.17 523.61 518.94 516.25 518.94 C 519.00 517.73 524.48 518.10 523.79 513.71 C 523.76 500.68 524.67 487.56 523.16 474.63 C 521.41 474.35 517.89 473.81 516.13 473.53 M 530.60 475.35 C 530.48 482.23 530.52 489.11 530.54 495.98 C 534.34 495.95 538.85 497.03 541.89 493.99 C 546.51 489.39 545.80 480.74 540.64 476.84 C 537.68 474.76 533.95 475.50 530.60 475.35 M 22.21 548.46 C 104.49 545.74 186.79 542.48 269.11 541.88 C 362.14 541.34 455.12 545.31 548.10 548.43 C 548.13 549.36 548.21 551.20 548.26 552.13 C 479.05 555.12 409.76 556.79 340.52 558.66 L 216.61 558.66 C 151.51 556.79 86.37 555.27 21.31 552.04 C 21.54 551.15 21.99 549.36 22.21 548.46 " fill-rule="non-zero" fill="#131313"/>
    </g>
</svg>