<?xml version="1.0" encoding="UTF-8"?>
<!DOCTYPE svg PUBLIC "-//W3C//DTD SVG 1.1//EN" "http://www.w3.org/Graphics/SVG/1.1/DTD/svg11.dtd">
<!-- Creator: CorelDRAW 2019 (64-Bit) -->
<svg xmlns="http://www.w3.org/2000/svg" xml:space="preserve" width="175.852mm" height="68.5967mm" version="1.1" style="shape-rendering:geometricPrecision; text-rendering:geometricPrecision; image-rendering:optimizeQuality; fill-rule:evenodd; clip-rule:evenodd"
viewBox="0 0 175.532 68.4717"
 xmlns:xlink="http://www.w3.org/1999/xlink"
 xmlns:xodm="http://www.corel.com/coreldraw/odm/2003">
 <defs>
  <style type="text/css">
   <![CDATA[
    .fil1 {fill:#C82223}
    .fil0 {fill:#1E3761}
    .fil2 {fill:white}
   ]]>
  </style>
 </defs>
 <g id="Layer_x0020_1">
  <metadata id="CorelCorpID_0Corel-Layer"/>
  <g id="_731721584">
   <path class="fil0" d="M142.748 28.2703c-0.2153,0 -0.4307,-0.2153 -0.4307,-0.4299 0,-0.1079 0.1076,-0.2153 0.1076,-0.3226l13.7586 -13.5441c0.323,-0.2148 0.4308,-0.6447 0.4308,-1.0747 0,-0.8597 -0.5371,-1.505 -1.2898,-1.505l-16.2318 0c-0.859,0 -1.5048,0.6452 -1.5048,1.505l0 19.3481c0,0.7525 0.6457,1.505 1.397,1.505l31.0646 0c0.2154,0 0.5386,0.2153 0.5386,0.5372 0,0.1079 -0.1077,0.2152 -0.1077,0.3226l-8.707 9.0295c-1.2896,1.1819 -2.0424,1.2898 -3.5477,1.2898 -1.3974,0 -24.8298,0 -24.8298,0 -3.7623,0 -6.8794,-3.1174 -6.8794,-6.9872l0 -30.9571c0,-3.762 3.1171,-6.8795 6.8794,-6.9868l30.9573 0c3.977,0 6.9862,3.1174 6.9862,6.9868l0 5.0524c0,2.0423 0.323,2.3643 -1.9348,4.4072l-10.2109 10.3188c-1.0744,1.1825 -1.5052,1.3972 -3.44,1.3972 -1.7193,0.1079 -12.5762,0.1079 -13.0059,0.1079z"/>
   <path class="fil0" d="M44.7161 16.9836c0.2153,0 0.4299,0.2147 0.4299,0.43 0,0.1073 -0.1072,0.2146 -0.1072,0.3226l-13.759 13.5436c-0.3225,0.2151 -0.4298,0.6452 -0.4298,1.0751 0,0.8598 0.5372,1.5046 1.2895,1.5046l16.2313 0c0.8599,0 1.505,-0.6447 1.505,-1.5046l0 -19.3486c0,-0.7525 -0.645,-1.5051 -1.3976,-1.5051l-31.0644 0c-0.2154,0 -0.5373,-0.2147 -0.5373,-0.5372 0,-0.1074 0.1073,-0.2153 0.1073,-0.3226l8.7064 -9.029c1.2898,-1.1825 2.0424,-1.2898 3.5475,-1.2898 1.3969,0 24.8302,0 24.8302,0 3.7621,0 6.8794,3.1168 6.8794,6.9867l0 30.9572c0,3.7625 -3.1173,6.8793 -6.8794,6.9872l-30.8499 0c-3.9773,0 -6.9867,-3.1174 -6.9867,-6.9872l0 -5.0518c0,-2.0424 -0.3226,-2.3649 1.9349,-4.4073l10.2116 -10.3188c1.075,-1.1825 1.5052,-1.3977 3.4394,-1.3977 1.6124,-0.1074 12.4691,-0.1074 12.899,-0.1074z"/>
   <path class="fil0" d="M-0 1.935c0,-0.9677 0.7525,-1.7197 1.7198,-1.7197l8.0619 0c0.9671,0 1.7198,0.7519 1.7198,1.7197l0 41.2759c0,0.9677 -0.7526,1.7203 -1.7198,1.7203l-8.0619 0c-0.9672,0 -1.7198,-0.7525 -1.7198,-1.7203l0 -41.2759z"/>
   <path class="fil0" d="M65.8918 12.7916c0,-1.7203 1.3975,-2.6874 1.3975,-2.6874 1.7198,-1.7198 8.3841,-8.4918 8.3841,-8.4918 1.2901,-1.1825 2.0423,-1.2898 3.5471,-1.2898l35.3643 0c3.7625,0 6.9873,3.1168 6.9873,6.8793l0 26.0128c-0.108,1.7197 -0.5379,2.2569 -1.6125,3.4393l-8.7071 8.4918c-0.1071,0.1079 -0.2146,0.2153 -0.3225,0.2153 -0.2147,0 -0.4298,-0.2153 -0.4298,-0.43l0 -31.7096c0,-0.9677 -0.4299,-1.6125 -1.7198,-1.6125 -0.1075,0 -7.7394,0 -7.7394,0 -0.8598,0 -1.6124,0.7521 -1.6124,1.7199l0 30.0972c0,0.9672 -0.7524,1.7197 -1.6125,1.7197l-7.8466 0c-0.8599,0 -1.6124,-0.7524 -1.6124,-1.7197l0 -30.0972c0,-0.9677 -0.7524,-1.7199 -1.6123,-1.7199l-8.0619 0c-0.8598,0 -1.6124,0.7521 -1.6124,1.7199l0 30.0972c0,0.9672 -0.7526,1.7197 -1.6124,1.7197l-7.8466 0c-0.8606,0 -1.6126,-0.7524 -1.6126,-1.7197 -0.1077,-0.1073 -0.2152,-28.7001 -0.1077,-30.6346z"/>
   <path class="fil0" d="M172.5229 1.075l0 2.3644 0.4296 0 0 -0.9672 0.323 0c0.2142,0 0.4296,0 0.4296,0.1074 0.1076,0.1079 0.2153,0.3226 0.2153,0.5378l0 0.322 0.4296 0 0 -0.1073c0,-0.1073 0,-0.1073 0,-0.2147l0 -0.2152c0,-0.1074 0,-0.2147 -0.1079,-0.3226 -0.1076,-0.1074 -0.2153,-0.2147 -0.4294,-0.2147 0.1077,0 0.2141,-0.1073 0.3218,-0.1073 0.1076,-0.108 0.2155,-0.2152 0.2155,-0.43 0,-0.3226 -0.1079,-0.5377 -0.3232,-0.6452 -0.1064,-0.1073 -0.3217,-0.1073 -0.645,-0.1073l-0.8589 0zm1.3975 0.7525l0 0c0,0.2148 -0.1077,0.322 -0.2153,0.322 -0.1079,0 -0.2154,0 -0.4296,0l-0.4308 0 0 -0.7524 0.3232 0c0.2139,0 0.4293,0 0.5372,0.1078 0.2153,0 0.2153,0.1075 0.2153,0.3226zm1.6116 0.43l0 0c0,0.6446 -0.2139,1.0745 -0.6448,1.5045 -0.4295,0.4299 -0.8603,0.6452 -1.5054,0.6452 -0.5371,0 -1.0743,-0.2153 -1.5038,-0.6452 -0.4309,-0.4299 -0.6448,-0.8598 -0.6448,-1.5045 0,-0.5378 0.2139,-1.0752 0.6448,-1.5051 0.4294,-0.4299 0.8603,-0.6452 1.5038,-0.6452 0.5386,0 1.0758,0.2153 1.5054,0.6452 0.4309,0.4298 0.6448,0.8599 0.6448,1.5051zm-2.1502 -1.8277l0 0c0.5386,0 0.9682,0.2153 1.2899,0.5373 0.3231,0.3226 0.5385,0.8603 0.5385,1.2903 0,0.5372 -0.2154,0.9672 -0.5385,1.2898 -0.3217,0.3224 -0.7513,0.5372 -1.2899,0.5372 -0.5371,0 -0.9665,-0.2148 -1.2896,-0.5372 -0.3218,-0.3226 -0.5372,-0.8599 -0.5372,-1.2898 0,-0.5378 0.2154,-0.9677 0.5372,-1.2903 0.3231,-0.4299 0.7525,-0.5373 1.2896,-0.5373z"/>
   <path class="fil1" d="M158.6567 49.1232c0,-0.2148 -0.2154,-0.5373 -0.4309,-0.5373l-126.946 0c-0.9671,0 -2.5795,0.7524 -2.9022,1.7197l-17.091 16.3386c0,0.9677 0.7527,1.7197 1.7199,1.7197l122.5392 0c0.1073,0 0.2154,0.1079 0.4299,0.1079 0,0 0.9672,0 2.2581,0 1.5041,-0.1079 2.1489,-0.1079 3.4386,-1.2898l16.769 -17.6287c0.2154,-0.2148 0.2154,-0.3226 0.2154,-0.4299z"/>
   <path class="fil2" d="M142.8546 53.5304l0 -1.1825 -8.9212 0 0 1.1825 3.7622 0 0 10.7489 1.3971 0 0 -10.7489 3.7618 0zm-10.7482 2.4722l0 0c0,1.075 -0.3227,2.3649 -3.2248,2.3649l-2.7948 0 0 -4.8371 2.6869 0c3.01,0 3.3327,1.2898 3.3327,2.4722zm-3.2248 3.4394l0 0c2.2569,0 4.7293,-0.322 4.7293,-3.4394 0,-1.505 -0.4299,-3.6547 -4.8372,-3.6547l-4.1918 0 0 11.9314 1.397 0 0 -5.0518 5.6971 5.0518 2.15 0 -5.912 -4.8373 0.9676 0zm-7.6319 -1.0745l0 0c0,2.6869 -0.7527,4.8373 -4.1926,4.8373 -3.332,0 -4.1918,-2.1504 -4.1918,-4.8373 0,-2.6875 0.8598,-4.8371 4.1918,-4.8371 3.3326,-0.1074 4.1926,2.0423 4.1926,4.8371zm1.397 0l0 0c0,-3.3321 -1.0745,-6.0196 -5.6969,-6.0196 -4.5147,0 -5.5899,2.795 -5.5899,6.0196 0,3.2249 1.0752,6.0196 5.5899,6.0196 4.6224,0 5.6969,-2.7947 5.6969,-6.0196zm-14.1887 -2.1496l0 0c0,1.1818 -0.2148,2.5795 -3.3321,2.5795l-2.9023 0 0 -5.3744 2.9023 0c3.0094,0.1074 3.3321,1.6124 3.3321,2.7949zm1.3975 0l0 0c0,-1.6124 -0.3225,-3.87 -4.8371,-3.87l-4.1925 0 0 11.9314 1.3976 0 0 -4.192 2.9023 0c4.5144,0 4.7297,-2.1497 4.7297,-3.8693zm-10.9641 4.6218l0 0c0,-4.1918 -8.3844,-2.2575 -8.3844,-5.1597 0,-1.397 1.1824,-2.1496 3.2247,-2.1496 2.1497,0 3.4394,0.8598 3.5473,2.9021l1.3972 0c0,-2.6873 -1.8273,-4.1918 -4.9446,-4.1918 -3.1173,0 -4.7298,1.2897 -4.7298,3.5468 0,4.0851 8.3844,1.9349 8.3844,5.1596 0,1.0751 -0.7523,2.1497 -3.4398,2.1497 -2.9023,0 -3.762,-1.3971 -3.8694,-3.1168l-1.3972 0c0,2.5796 1.3972,4.4072 5.2667,4.4072 3.8697,0 4.9449,-1.935 4.9449,-3.5474zm-13.2215 -4.8371l0 0c0,1.075 -0.3225,2.3649 -3.2247,2.3649l-2.7949 0 0 -4.8371 2.6875 0c2.9023,0 3.3321,1.2898 3.3321,2.4722zm-3.3321 3.4394l0 0c2.257,0 4.7298,-0.322 4.7298,-3.4394 0,-1.505 -0.4305,-3.6547 -4.8371,-3.6547l-4.1924 0 0 11.9314 1.3977 0 0 -5.0518 5.6969 5.0518 2.1496 0 -5.9116 -4.8373 0.9671 0zm-7.6318 -1.0745l0 0c0,2.6869 -0.7526,4.8373 -4.1921,4.8373 -3.3321,0 -4.1924,-2.1504 -4.1924,-4.8373 0,-2.6875 0.8603,-4.8371 4.1924,-4.8371 3.4395,-0.1074 4.1921,2.0423 4.1921,4.8371zm1.505 0l0 0c0,-3.3321 -1.0751,-6.0196 -5.6971,-6.0196 -4.5146,0 -5.5895,2.795 -5.5895,6.0196 0,3.2249 1.0749,6.0196 5.5895,6.0196 4.5147,0 5.6971,-2.7947 5.6971,-6.0196zm-11.1794 -4.8371l0 0 -3.762 0 0 10.7489 -1.397 0 0 -10.7489 -3.7626 0 0 -1.1825 8.9217 0 0 1.1825zm-10.6415 4.8371l0 0c0,2.6869 -0.7524,4.8373 -4.1918,4.8373 -3.3327,0 -4.1924,-2.1504 -4.1924,-4.8373 0,-2.6875 0.8597,-4.8371 4.1924,-4.8371 3.4394,-0.1074 4.1918,2.0423 4.1918,4.8371zm1.5051 0l0 0c0,-3.3321 -1.075,-6.0196 -5.6969,-6.0196 -4.5148,0 -5.5898,2.795 -5.5898,6.0196 0,3.2249 1.075,6.0196 5.5898,6.0196 4.6219,0 5.6969,-2.7947 5.6969,-6.0196zm-13.2215 5.9118l0 0 0 -11.9314 -2.2572 0 -4.6224 10.319 -4.622 -10.319 -2.1497 0 0 11.9314 1.3972 0 0 -10.1043 4.6219 10.1043 1.3976 0 4.622 -10.1043 0 10.1043 1.6125 0z"/>
   <path class="fil0" d="M26.9799 48.8006c0,-0.1074 -0.2148,-0.2147 -0.322,-0.2147l-26.5505 0 0 8.8138 15.4784 0c1.1825,0 1.7204,-0.1073 2.6875,-0.6446l8.5993 -7.8467c0.1073,0.1073 0.1073,0 0.1073,-0.1078z"/>
   <path class="fil1" d="M15.6938 59.7646c0,-0.1073 -0.2153,-0.2146 -0.3224,-0.2146l-15.264 0 0 8.8138 4.1924 0c1.1824,0 1.7198,-0.1073 2.687,-0.6446l8.599 -7.8466c0,0 0.108,0 0.108,-0.108z"/>
  </g>
 </g>
</svg>
