<?xml version="1.0" encoding="UTF-8" standalone="no"?>
<svg xmlns="http://www.w3.org/2000/svg" viewBox="0 0 100 100" role="img" aria-label="PKT Swiss Kart Team">
  <rect width="100" height="100" rx="15" ry="15" fill="#ffffff"/>
  <svg x="10" y="30.4" width="80" height="39.2" viewBox="8.19 0 300.66 147.2" preserveAspectRatio="xMidYMid meet">
    <g transform="matrix(0.54900822 0 0 1 0.28539301 0)">
      <path fill="#ffeb00" d="m 121.98828,20.371094 -20.60156,55.480468 h 11.73437 c 12.4961,0 22.46094,-2.046874 29.94532,-6.136718 7.46484,-4.050782 12.82421,-10.394532 16,-18.945313 3.375,-9.085937 2.61328,-16.40625 -2.21875,-22.011719 -4.88672,-5.609374 -12.96485,-8.386718 -24.21875,-8.386718 z M 23.714844,147.61719 78.433594,0.484375 h 74.695316 c 23.94531,0 40.83203,4.5 50.68359,13.542969 9.85547,9.042968 11.77344,21.722656 5.71094,38.050781 -4.95313,13.335937 -14.19922,23.976563 -27.65625,31.832031 -13.52344,7.894532 -29.2461,11.824219 -47.17578,11.824219 H 94.003906 L 74.636719,147.73047 Z m 276.070316,0.0586 -17.48438,-65.89453 85.99609,-81.296875 h 27.52344 l -62.17187,58.632813 23.95703,88.453122 z m -96.92188,-0.0547 54.72656,-147.136715 h 52.375 L 255.23828,147.62109 Z m 203.25,-0.1289 46.64844,-125.406252 h -49.79688 l 8.02735,-21.601563 h 151.96484 l -8.02344,21.601563 h -49.79687 l -46.6875,125.507812 z"/>
      <path fill="#0c1e42" d="m 28.875,133.73047 50.972656,0.004 -4.054687,10.90235 -50.96875,-0.004 z"/>
      <path fill="#0c1e42" d="m 208.02734,133.74609 52.3711,-0.004 -4.05078,10.89453 -52.375,0.008 z"/>
      <path fill="#0c1e42" d="m 411.22266,133.75 52.375,0.004 -4.05469,10.89843 h -52.375 z"/>
      <path fill="#0c1e42" d="m 296.13281,133.80078 57.7461,0.0156 2.92968,10.8125 -57.77734,0.0898 z"/>
      <path fill="#0c1e42" d="M 112.09375,24.695312 91.484375,80.171875 h 11.734375 c 12.49609,0 22.46094,-2.042969 29.94531,-6.136719 7.46485,-4.050781 12.82813,-10.390625 16.00391,-18.945312 3.375,-9.082032 2.60937,-16.40625 -2.22266,-22.007813 -4.88672,-5.609375 -12.96094,-8.386719 -24.21484,-8.386719 z M 15.496094,147.60937 68.53125,4.808594 h 74.70312 c 23.9375,0 40.82422,4.5 50.67579,13.542968 9.85546,9.039063 11.77734,21.726563 5.71484,38.050782 -4.95703,13.335937 -14.20313,23.976562 -27.65625,31.832031 -13.52344,7.894531 -29.24609,11.824215 -47.17969,11.824215 H 84.101562 l -17.679687,47.60547 z m 273.257816,0.0859 -16.35547,-61.589841 86,-81.296875 h 27.52343 l -62.17578,58.632812 22.79297,84.152344 z M 194.64453,147.64062 247.69141,4.808594 H 300.0625 L 247.02344,147.625 Z M 397.90625,147.46094 442.85937,26.410156 H 393.0625 l 8.02344,-21.601562 h 151.96875 l -8.01953,21.601562 H 495.23828 L 450.21094,147.64844 Z"/>
      <path fill="#ffeb00" d="m 20.230469,134.87891 h 50.941406 l -4.050781,10.90234 H 16.175781 Z"/>
      <path fill="#ffeb00" d="m 199.37891,134.89453 52.375,-0.008 -4.04688,10.90625 h -52.375 z"/>
      <path fill="#ffeb00" d="m 402.57422,134.89844 h 52.37109 l -4.04297,10.89843 -52.375,0.004 z"/>
      <path fill="#ffeb00" d="m 285.36328,134.92969 57.75,0.0117 2.92578,10.8125 -57.77734,0.0898 z"/>
    </g>
  </svg>
</svg>
